  0
SECTION
  2
BLOCKS
  0
ENDSEC
  0
SECTION
  2
ENTITIES
  0
LINE
  8
0
 10
95
 20
15458.5
 11
-95
 21
15458.5
  0
LINE
  8
0
 10
-95
 20
15458.5
 11
-95
 21
15213.5
  0
LINE
  8
0
 10
-95
 20
15213.5
 11
95
 21
15213.5
  0
LINE
  8
0
 10
95
 20
15213.5
 11
95
 21
15458.5
  0
LINE
  8
0
 10
90.887
 20
15452.7
 11
90.6627
 21
15452.7
  0
LINE
  8
0
 10
90.6627
 20
15452.7
 11
90.4438
 21
15452.8
  0
LINE
  8
0
 10
90.4438
 20
15452.8
 11
90.2336
 21
15452.9
  0
LINE
  8
0
 10
90.2336
 20
15452.9
 11
90.0355
 21
15453
  0
LINE
  8
0
 10
90.0355
 20
15453
 11
89.8526
 21
15453.1
  0
LINE
  8
0
 10
89.8526
 20
15453.1
 11
89.6879
 21
15453.3
  0
LINE
  8
0
 10
89.6879
 20
15453.3
 11
89.5438
 21
15453.4
  0
LINE
  8
0
 10
89.5438
 20
15453.4
 11
89.4226
 21
15453.6
  0
LINE
  8
0
 10
89.4226
 20
15453.6
 11
89.3264
 21
15453.8
  0
LINE
  8
0
 10
89.3264
 20
15453.8
 11
89.2565
 21
15454.1
  0
LINE
  8
0
 10
89.2565
 20
15454.1
 11
89.2142
 21
15454.3
  0
LINE
  8
0
 10
89.2142
 20
15454.3
 11
89.2
 21
15454.5
  0
LINE
  8
0
 10
89.2
 20
15454.5
 11
89.2142
 21
15454.7
  0
LINE
  8
0
 10
89.2142
 20
15454.7
 11
89.2565
 21
15454.9
  0
LINE
  8
0
 10
89.2565
 20
15454.9
 11
89.3264
 21
15455.2
  0
LINE
  8
0
 10
89.3264
 20
15455.2
 11
89.4226
 21
15455.4
  0
LINE
  8
0
 10
89.4226
 20
15455.4
 11
89.5438
 21
15455.6
  0
LINE
  8
0
 10
89.5438
 20
15455.6
 11
89.6879
 21
15455.7
  0
LINE
  8
0
 10
89.6879
 20
15455.7
 11
89.8526
 21
15455.9
  0
LINE
  8
0
 10
89.8526
 20
15455.9
 11
90.0355
 21
15456
  0
LINE
  8
0
 10
90.0355
 20
15456
 11
90.2336
 21
15456.1
  0
LINE
  8
0
 10
90.2336
 20
15456.1
 11
90.4438
 21
15456.2
  0
LINE
  8
0
 10
90.4438
 20
15456.2
 11
90.6627
 21
15456.3
  0
LINE
  8
0
 10
90.6627
 20
15456.3
 11
90.887
 21
15456.3
  0
LINE
  8
0
 10
90.887
 20
15456.3
 11
91.113
 21
15456.3
  0
LINE
  8
0
 10
91.113
 20
15456.3
 11
91.3373
 21
15456.3
  0
LINE
  8
0
 10
91.3373
 20
15456.3
 11
91.5562
 21
15456.2
  0
LINE
  8
0
 10
91.5562
 20
15456.2
 11
91.7664
 21
15456.1
  0
LINE
  8
0
 10
91.7664
 20
15456.1
 11
91.9645
 21
15456
  0
LINE
  8
0
 10
91.9645
 20
15456
 11
92.1474
 21
15455.9
  0
LINE
  8
0
 10
92.1474
 20
15455.9
 11
92.3121
 21
15455.7
  0
LINE
  8
0
 10
92.3121
 20
15455.7
 11
92.4562
 21
15455.6
  0
LINE
  8
0
 10
92.4562
 20
15455.6
 11
92.5773
 21
15455.4
  0
LINE
  8
0
 10
92.5773
 20
15455.4
 11
92.6736
 21
15455.2
  0
LINE
  8
0
 10
92.6736
 20
15455.2
 11
92.7434
 21
15454.9
  0
LINE
  8
0
 10
92.7434
 20
15454.9
 11
92.7858
 21
15454.7
  0
LINE
  8
0
 10
92.7858
 20
15454.7
 11
92.8
 21
15454.5
  0
LINE
  8
0
 10
92.8
 20
15454.5
 11
92.7858
 21
15454.3
  0
LINE
  8
0
 10
92.7858
 20
15454.3
 11
92.7434
 21
15454.1
  0
LINE
  8
0
 10
92.7434
 20
15454.1
 11
92.6736
 21
15453.8
  0
LINE
  8
0
 10
92.6736
 20
15453.8
 11
92.5773
 21
15453.6
  0
LINE
  8
0
 10
92.5773
 20
15453.6
 11
92.4562
 21
15453.4
  0
LINE
  8
0
 10
92.4562
 20
15453.4
 11
92.3121
 21
15453.3
  0
LINE
  8
0
 10
92.3121
 20
15453.3
 11
92.1474
 21
15453.1
  0
LINE
  8
0
 10
92.1474
 20
15453.1
 11
91.9645
 21
15453
  0
LINE
  8
0
 10
91.9645
 20
15453
 11
91.7664
 21
15452.9
  0
LINE
  8
0
 10
91.7664
 20
15452.9
 11
91.5562
 21
15452.8
  0
LINE
  8
0
 10
91.5562
 20
15452.8
 11
91.3373
 21
15452.7
  0
LINE
  8
0
 10
91.3373
 20
15452.7
 11
91.113
 21
15452.7
  0
LINE
  8
0
 10
91.113
 20
15452.7
 11
90.887
 21
15452.7
  0
LINE
  8
0
 10
-91.113
 20
15452.7
 11
-91.3373
 21
15452.7
  0
LINE
  8
0
 10
-91.3373
 20
15452.7
 11
-91.5562
 21
15452.8
  0
LINE
  8
0
 10
-91.5562
 20
15452.8
 11
-91.7664
 21
15452.9
  0
LINE
  8
0
 10
-91.7664
 20
15452.9
 11
-91.9645
 21
15453
  0
LINE
  8
0
 10
-91.9645
 20
15453
 11
-92.1474
 21
15453.1
  0
LINE
  8
0
 10
-92.1474
 20
15453.1
 11
-92.3121
 21
15453.3
  0
LINE
  8
0
 10
-92.3121
 20
15453.3
 11
-92.4562
 21
15453.4
  0
LINE
  8
0
 10
-92.4562
 20
15453.4
 11
-92.5773
 21
15453.6
  0
LINE
  8
0
 10
-92.5773
 20
15453.6
 11
-92.6736
 21
15453.8
  0
LINE
  8
0
 10
-92.6736
 20
15453.8
 11
-92.7434
 21
15454.1
  0
LINE
  8
0
 10
-92.7434
 20
15454.1
 11
-92.7858
 21
15454.3
  0
LINE
  8
0
 10
-92.7858
 20
15454.3
 11
-92.8
 21
15454.5
  0
LINE
  8
0
 10
-92.8
 20
15454.5
 11
-92.7858
 21
15454.7
  0
LINE
  8
0
 10
-92.7858
 20
15454.7
 11
-92.7434
 21
15454.9
  0
LINE
  8
0
 10
-92.7434
 20
15454.9
 11
-92.6736
 21
15455.2
  0
LINE
  8
0
 10
-92.6736
 20
15455.2
 11
-92.5773
 21
15455.4
  0
LINE
  8
0
 10
-92.5773
 20
15455.4
 11
-92.4562
 21
15455.6
  0
LINE
  8
0
 10
-92.4562
 20
15455.6
 11
-92.3121
 21
15455.7
  0
LINE
  8
0
 10
-92.3121
 20
15455.7
 11
-92.1474
 21
15455.9
  0
LINE
  8
0
 10
-92.1474
 20
15455.9
 11
-91.9645
 21
15456
  0
LINE
  8
0
 10
-91.9645
 20
15456
 11
-91.7664
 21
15456.1
  0
LINE
  8
0
 10
-91.7664
 20
15456.1
 11
-91.5562
 21
15456.2
  0
LINE
  8
0
 10
-91.5562
 20
15456.2
 11
-91.3373
 21
15456.3
  0
LINE
  8
0
 10
-91.3373
 20
15456.3
 11
-91.113
 21
15456.3
  0
LINE
  8
0
 10
-91.113
 20
15456.3
 11
-90.887
 21
15456.3
  0
LINE
  8
0
 10
-90.887
 20
15456.3
 11
-90.6627
 21
15456.3
  0
LINE
  8
0
 10
-90.6627
 20
15456.3
 11
-90.4438
 21
15456.2
  0
LINE
  8
0
 10
-90.4438
 20
15456.2
 11
-90.2336
 21
15456.1
  0
LINE
  8
0
 10
-90.2336
 20
15456.1
 11
-90.0355
 21
15456
  0
LINE
  8
0
 10
-90.0355
 20
15456
 11
-89.8526
 21
15455.9
  0
LINE
  8
0
 10
-89.8526
 20
15455.9
 11
-89.6879
 21
15455.7
  0
LINE
  8
0
 10
-89.6879
 20
15455.7
 11
-89.5438
 21
15455.6
  0
LINE
  8
0
 10
-89.5438
 20
15455.6
 11
-89.4226
 21
15455.4
  0
LINE
  8
0
 10
-89.4226
 20
15455.4
 11
-89.3264
 21
15455.2
  0
LINE
  8
0
 10
-89.3264
 20
15455.2
 11
-89.2565
 21
15454.9
  0
LINE
  8
0
 10
-89.2565
 20
15454.9
 11
-89.2142
 21
15454.7
  0
LINE
  8
0
 10
-89.2142
 20
15454.7
 11
-89.2
 21
15454.5
  0
LINE
  8
0
 10
-89.2
 20
15454.5
 11
-89.2142
 21
15454.3
  0
LINE
  8
0
 10
-89.2142
 20
15454.3
 11
-89.2565
 21
15454.1
  0
LINE
  8
0
 10
-89.2565
 20
15454.1
 11
-89.3264
 21
15453.8
  0
LINE
  8
0
 10
-89.3264
 20
15453.8
 11
-89.4226
 21
15453.6
  0
LINE
  8
0
 10
-89.4226
 20
15453.6
 11
-89.5438
 21
15453.4
  0
LINE
  8
0
 10
-89.5438
 20
15453.4
 11
-89.6879
 21
15453.3
  0
LINE
  8
0
 10
-89.6879
 20
15453.3
 11
-89.8526
 21
15453.1
  0
LINE
  8
0
 10
-89.8526
 20
15453.1
 11
-90.0355
 21
15453
  0
LINE
  8
0
 10
-90.0355
 20
15453
 11
-90.2336
 21
15452.9
  0
LINE
  8
0
 10
-90.2336
 20
15452.9
 11
-90.4438
 21
15452.8
  0
LINE
  8
0
 10
-90.4438
 20
15452.8
 11
-90.6627
 21
15452.7
  0
LINE
  8
0
 10
-90.6627
 20
15452.7
 11
-90.887
 21
15452.7
  0
LINE
  8
0
 10
-90.887
 20
15452.7
 11
-91.113
 21
15452.7
  0
LINE
  8
0
 10
-84.8139
 20
15216.5
 11
-85.4369
 21
15216.6
  0
LINE
  8
0
 10
-85.4369
 20
15216.6
 11
-86.0451
 21
15216.7
  0
LINE
  8
0
 10
-86.0451
 20
15216.7
 11
-86.6289
 21
15217
  0
LINE
  8
0
 10
-86.6289
 20
15217
 11
-87.1791
 21
15217.3
  0
LINE
  8
0
 10
-87.1791
 20
15217.3
 11
-87.6871
 21
15217.6
  0
LINE
  8
0
 10
-87.6871
 20
15217.6
 11
-88.1448
 21
15218.1
  0
LINE
  8
0
 10
-88.1448
 20
15218.1
 11
-88.5451
 21
15218.6
  0
LINE
  8
0
 10
-88.5451
 20
15218.6
 11
-88.8815
 21
15219.1
  0
LINE
  8
0
 10
-88.8815
 20
15219.1
 11
-89.1489
 21
15219.7
  0
LINE
  8
0
 10
-89.1489
 20
15219.7
 11
-89.3429
 21
15220.3
  0
LINE
  8
0
 10
-89.3429
 20
15220.3
 11
-89.4606
 21
15220.9
  0
LINE
  8
0
 10
-89.4606
 20
15220.9
 11
-89.5
 21
15221.5
  0
LINE
  8
0
 10
-89.5
 20
15221.5
 11
-89.5
 21
15450.5
  0
LINE
  8
0
 10
-89.5
 20
15450.5
 11
-89.4606
 21
15451.1
  0
LINE
  8
0
 10
-89.4606
 20
15451.1
 11
-89.3429
 21
15451.7
  0
LINE
  8
0
 10
-89.3429
 20
15451.7
 11
-89.1489
 21
15452.3
  0
LINE
  8
0
 10
-89.1489
 20
15452.3
 11
-88.8815
 21
15452.9
  0
LINE
  8
0
 10
-88.8815
 20
15452.9
 11
-88.5451
 21
15453.4
  0
LINE
  8
0
 10
-88.5451
 20
15453.4
 11
-88.1448
 21
15453.9
  0
LINE
  8
0
 10
-88.1448
 20
15453.9
 11
-87.6871
 21
15454.4
  0
LINE
  8
0
 10
-87.6871
 20
15454.4
 11
-87.1791
 21
15454.7
  0
LINE
  8
0
 10
-87.1791
 20
15454.7
 11
-86.6289
 21
15455
  0
LINE
  8
0
 10
-86.6289
 20
15455
 11
-86.0451
 21
15455.3
  0
LINE
  8
0
 10
-86.0451
 20
15455.3
 11
-85.4369
 21
15455.4
  0
LINE
  8
0
 10
-85.4369
 20
15455.4
 11
-84.8139
 21
15455.5
  0
LINE
  8
0
 10
-84.8139
 20
15455.5
 11
84.8139
 21
15455.5
  0
LINE
  8
0
 10
84.8139
 20
15455.5
 11
85.4369
 21
15455.4
  0
LINE
  8
0
 10
85.4369
 20
15455.4
 11
86.0451
 21
15455.3
  0
LINE
  8
0
 10
86.0451
 20
15455.3
 11
86.6289
 21
15455
  0
LINE
  8
0
 10
86.6289
 20
15455
 11
87.1791
 21
15454.7
  0
LINE
  8
0
 10
87.1791
 20
15454.7
 11
87.6871
 21
15454.4
  0
LINE
  8
0
 10
87.6871
 20
15454.4
 11
88.1448
 21
15453.9
  0
LINE
  8
0
 10
88.1448
 20
15453.9
 11
88.5451
 21
15453.4
  0
LINE
  8
0
 10
88.5451
 20
15453.4
 11
88.8815
 21
15452.9
  0
LINE
  8
0
 10
88.8815
 20
15452.9
 11
89.1489
 21
15452.3
  0
LINE
  8
0
 10
89.1489
 20
15452.3
 11
89.3429
 21
15451.7
  0
LINE
  8
0
 10
89.3429
 20
15451.7
 11
89.4606
 21
15451.1
  0
LINE
  8
0
 10
89.4606
 20
15451.1
 11
89.5
 21
15450.5
  0
LINE
  8
0
 10
89.5
 20
15450.5
 11
89.5
 21
15221.5
  0
LINE
  8
0
 10
89.5
 20
15221.5
 11
89.4606
 21
15220.9
  0
LINE
  8
0
 10
89.4606
 20
15220.9
 11
89.3429
 21
15220.3
  0
LINE
  8
0
 10
89.3429
 20
15220.3
 11
89.1489
 21
15219.7
  0
LINE
  8
0
 10
89.1489
 20
15219.7
 11
88.8815
 21
15219.1
  0
LINE
  8
0
 10
88.8815
 20
15219.1
 11
88.5451
 21
15218.6
  0
LINE
  8
0
 10
88.5451
 20
15218.6
 11
88.1448
 21
15218.1
  0
LINE
  8
0
 10
88.1448
 20
15218.1
 11
87.6871
 21
15217.6
  0
LINE
  8
0
 10
87.6871
 20
15217.6
 11
87.1791
 21
15217.3
  0
LINE
  8
0
 10
87.1791
 20
15217.3
 11
86.6289
 21
15217
  0
LINE
  8
0
 10
86.6289
 20
15217
 11
86.0451
 21
15216.7
  0
LINE
  8
0
 10
86.0451
 20
15216.7
 11
85.4369
 21
15216.6
  0
LINE
  8
0
 10
85.4369
 20
15216.6
 11
84.8139
 21
15216.5
  0
LINE
  8
0
 10
84.8139
 20
15216.5
 11
-84.8139
 21
15216.5
  0
LINE
  8
0
 10
90.887
 20
15215.7
 11
90.6627
 21
15215.7
  0
LINE
  8
0
 10
90.6627
 20
15215.7
 11
90.4438
 21
15215.8
  0
LINE
  8
0
 10
90.4438
 20
15215.8
 11
90.2336
 21
15215.9
  0
LINE
  8
0
 10
90.2336
 20
15215.9
 11
90.0355
 21
15216
  0
LINE
  8
0
 10
90.0355
 20
15216
 11
89.8526
 21
15216.1
  0
LINE
  8
0
 10
89.8526
 20
15216.1
 11
89.6879
 21
15216.3
  0
LINE
  8
0
 10
89.6879
 20
15216.3
 11
89.5438
 21
15216.4
  0
LINE
  8
0
 10
89.5438
 20
15216.4
 11
89.4226
 21
15216.6
  0
LINE
  8
0
 10
89.4226
 20
15216.6
 11
89.3264
 21
15216.8
  0
LINE
  8
0
 10
89.3264
 20
15216.8
 11
89.2565
 21
15217.1
  0
LINE
  8
0
 10
89.2565
 20
15217.1
 11
89.2142
 21
15217.3
  0
LINE
  8
0
 10
89.2142
 20
15217.3
 11
89.2
 21
15217.5
  0
LINE
  8
0
 10
89.2
 20
15217.5
 11
89.2142
 21
15217.7
  0
LINE
  8
0
 10
89.2142
 20
15217.7
 11
89.2565
 21
15217.9
  0
LINE
  8
0
 10
89.2565
 20
15217.9
 11
89.3264
 21
15218.2
  0
LINE
  8
0
 10
89.3264
 20
15218.2
 11
89.4226
 21
15218.4
  0
LINE
  8
0
 10
89.4226
 20
15218.4
 11
89.5438
 21
15218.6
  0
LINE
  8
0
 10
89.5438
 20
15218.6
 11
89.6879
 21
15218.7
  0
LINE
  8
0
 10
89.6879
 20
15218.7
 11
89.8526
 21
15218.9
  0
LINE
  8
0
 10
89.8526
 20
15218.9
 11
90.0355
 21
15219
  0
LINE
  8
0
 10
90.0355
 20
15219
 11
90.2336
 21
15219.1
  0
LINE
  8
0
 10
90.2336
 20
15219.1
 11
90.4438
 21
15219.2
  0
LINE
  8
0
 10
90.4438
 20
15219.2
 11
90.6627
 21
15219.3
  0
LINE
  8
0
 10
90.6627
 20
15219.3
 11
90.887
 21
15219.3
  0
LINE
  8
0
 10
90.887
 20
15219.3
 11
91.113
 21
15219.3
  0
LINE
  8
0
 10
91.113
 20
15219.3
 11
91.3373
 21
15219.3
  0
LINE
  8
0
 10
91.3373
 20
15219.3
 11
91.5562
 21
15219.2
  0
LINE
  8
0
 10
91.5562
 20
15219.2
 11
91.7664
 21
15219.1
  0
LINE
  8
0
 10
91.7664
 20
15219.1
 11
91.9645
 21
15219
  0
LINE
  8
0
 10
91.9645
 20
15219
 11
92.1474
 21
15218.9
  0
LINE
  8
0
 10
92.1474
 20
15218.9
 11
92.3121
 21
15218.7
  0
LINE
  8
0
 10
92.3121
 20
15218.7
 11
92.4562
 21
15218.6
  0
LINE
  8
0
 10
92.4562
 20
15218.6
 11
92.5773
 21
15218.4
  0
LINE
  8
0
 10
92.5773
 20
15218.4
 11
92.6736
 21
15218.2
  0
LINE
  8
0
 10
92.6736
 20
15218.2
 11
92.7434
 21
15217.9
  0
LINE
  8
0
 10
92.7434
 20
15217.9
 11
92.7858
 21
15217.7
  0
LINE
  8
0
 10
92.7858
 20
15217.7
 11
92.8
 21
15217.5
  0
LINE
  8
0
 10
92.8
 20
15217.5
 11
92.7858
 21
15217.3
  0
LINE
  8
0
 10
92.7858
 20
15217.3
 11
92.7434
 21
15217.1
  0
LINE
  8
0
 10
92.7434
 20
15217.1
 11
92.6736
 21
15216.8
  0
LINE
  8
0
 10
92.6736
 20
15216.8
 11
92.5773
 21
15216.6
  0
LINE
  8
0
 10
92.5773
 20
15216.6
 11
92.4562
 21
15216.4
  0
LINE
  8
0
 10
92.4562
 20
15216.4
 11
92.3121
 21
15216.3
  0
LINE
  8
0
 10
92.3121
 20
15216.3
 11
92.1474
 21
15216.1
  0
LINE
  8
0
 10
92.1474
 20
15216.1
 11
91.9645
 21
15216
  0
LINE
  8
0
 10
91.9645
 20
15216
 11
91.7664
 21
15215.9
  0
LINE
  8
0
 10
91.7664
 20
15215.9
 11
91.5562
 21
15215.8
  0
LINE
  8
0
 10
91.5562
 20
15215.8
 11
91.3373
 21
15215.7
  0
LINE
  8
0
 10
91.3373
 20
15215.7
 11
91.113
 21
15215.7
  0
LINE
  8
0
 10
91.113
 20
15215.7
 11
90.887
 21
15215.7
  0
LINE
  8
0
 10
-91.113
 20
15215.7
 11
-91.3373
 21
15215.7
  0
LINE
  8
0
 10
-91.3373
 20
15215.7
 11
-91.5562
 21
15215.8
  0
LINE
  8
0
 10
-91.5562
 20
15215.8
 11
-91.7664
 21
15215.9
  0
LINE
  8
0
 10
-91.7664
 20
15215.9
 11
-91.9645
 21
15216
  0
LINE
  8
0
 10
-91.9645
 20
15216
 11
-92.1474
 21
15216.1
  0
LINE
  8
0
 10
-92.1474
 20
15216.1
 11
-92.3121
 21
15216.3
  0
LINE
  8
0
 10
-92.3121
 20
15216.3
 11
-92.4562
 21
15216.4
  0
LINE
  8
0
 10
-92.4562
 20
15216.4
 11
-92.5773
 21
15216.6
  0
LINE
  8
0
 10
-92.5773
 20
15216.6
 11
-92.6736
 21
15216.8
  0
LINE
  8
0
 10
-92.6736
 20
15216.8
 11
-92.7434
 21
15217.1
  0
LINE
  8
0
 10
-92.7434
 20
15217.1
 11
-92.7858
 21
15217.3
  0
LINE
  8
0
 10
-92.7858
 20
15217.3
 11
-92.8
 21
15217.5
  0
LINE
  8
0
 10
-92.8
 20
15217.5
 11
-92.7858
 21
15217.7
  0
LINE
  8
0
 10
-92.7858
 20
15217.7
 11
-92.7434
 21
15217.9
  0
LINE
  8
0
 10
-92.7434
 20
15217.9
 11
-92.6736
 21
15218.2
  0
LINE
  8
0
 10
-92.6736
 20
15218.2
 11
-92.5773
 21
15218.4
  0
LINE
  8
0
 10
-92.5773
 20
15218.4
 11
-92.4562
 21
15218.6
  0
LINE
  8
0
 10
-92.4562
 20
15218.6
 11
-92.3121
 21
15218.7
  0
LINE
  8
0
 10
-92.3121
 20
15218.7
 11
-92.1474
 21
15218.9
  0
LINE
  8
0
 10
-92.1474
 20
15218.9
 11
-91.9645
 21
15219
  0
LINE
  8
0
 10
-91.9645
 20
15219
 11
-91.7664
 21
15219.1
  0
LINE
  8
0
 10
-91.7664
 20
15219.1
 11
-91.5562
 21
15219.2
  0
LINE
  8
0
 10
-91.5562
 20
15219.2
 11
-91.3373
 21
15219.3
  0
LINE
  8
0
 10
-91.3373
 20
15219.3
 11
-91.113
 21
15219.3
  0
LINE
  8
0
 10
-91.113
 20
15219.3
 11
-90.887
 21
15219.3
  0
LINE
  8
0
 10
-90.887
 20
15219.3
 11
-90.6627
 21
15219.3
  0
LINE
  8
0
 10
-90.6627
 20
15219.3
 11
-90.4438
 21
15219.2
  0
LINE
  8
0
 10
-90.4438
 20
15219.2
 11
-90.2336
 21
15219.1
  0
LINE
  8
0
 10
-90.2336
 20
15219.1
 11
-90.0355
 21
15219
  0
LINE
  8
0
 10
-90.0355
 20
15219
 11
-89.8526
 21
15218.9
  0
LINE
  8
0
 10
-89.8526
 20
15218.9
 11
-89.6879
 21
15218.7
  0
LINE
  8
0
 10
-89.6879
 20
15218.7
 11
-89.5438
 21
15218.6
  0
LINE
  8
0
 10
-89.5438
 20
15218.6
 11
-89.4226
 21
15218.4
  0
LINE
  8
0
 10
-89.4226
 20
15218.4
 11
-89.3264
 21
15218.2
  0
LINE
  8
0
 10
-89.3264
 20
15218.2
 11
-89.2565
 21
15217.9
  0
LINE
  8
0
 10
-89.2565
 20
15217.9
 11
-89.2142
 21
15217.7
  0
LINE
  8
0
 10
-89.2142
 20
15217.7
 11
-89.2
 21
15217.5
  0
LINE
  8
0
 10
-89.2
 20
15217.5
 11
-89.2142
 21
15217.3
  0
LINE
  8
0
 10
-89.2142
 20
15217.3
 11
-89.2565
 21
15217.1
  0
LINE
  8
0
 10
-89.2565
 20
15217.1
 11
-89.3264
 21
15216.8
  0
LINE
  8
0
 10
-89.3264
 20
15216.8
 11
-89.4226
 21
15216.6
  0
LINE
  8
0
 10
-89.4226
 20
15216.6
 11
-89.5438
 21
15216.4
  0
LINE
  8
0
 10
-89.5438
 20
15216.4
 11
-89.6879
 21
15216.3
  0
LINE
  8
0
 10
-89.6879
 20
15216.3
 11
-89.8526
 21
15216.1
  0
LINE
  8
0
 10
-89.8526
 20
15216.1
 11
-90.0355
 21
15216
  0
LINE
  8
0
 10
-90.0355
 20
15216
 11
-90.2336
 21
15215.9
  0
LINE
  8
0
 10
-90.2336
 20
15215.9
 11
-90.4438
 21
15215.8
  0
LINE
  8
0
 10
-90.4438
 20
15215.8
 11
-90.6627
 21
15215.7
  0
LINE
  8
0
 10
-90.6627
 20
15215.7
 11
-90.887
 21
15215.7
  0
LINE
  8
0
 10
-90.887
 20
15215.7
 11
-91.113
 21
15215.7
  0
LINE
  8
0
 10
95
 20
11624.5
 11
-95
 21
11624.5
  0
LINE
  8
0
 10
-95
 20
11624.5
 11
-95
 21
11379.5
  0
LINE
  8
0
 10
-95
 20
11379.5
 11
95
 21
11379.5
  0
LINE
  8
0
 10
95
 20
11379.5
 11
95
 21
11624.5
  0
LINE
  8
0
 10
-91.113
 20
11618.7
 11
-91.3373
 21
11618.7
  0
LINE
  8
0
 10
-91.3373
 20
11618.7
 11
-91.5562
 21
11618.8
  0
LINE
  8
0
 10
-91.5562
 20
11618.8
 11
-91.7664
 21
11618.9
  0
LINE
  8
0
 10
-91.7664
 20
11618.9
 11
-91.9645
 21
11619
  0
LINE
  8
0
 10
-91.9645
 20
11619
 11
-92.1474
 21
11619.1
  0
LINE
  8
0
 10
-92.1474
 20
11619.1
 11
-92.3121
 21
11619.3
  0
LINE
  8
0
 10
-92.3121
 20
11619.3
 11
-92.4562
 21
11619.4
  0
LINE
  8
0
 10
-92.4562
 20
11619.4
 11
-92.5773
 21
11619.6
  0
LINE
  8
0
 10
-92.5773
 20
11619.6
 11
-92.6736
 21
11619.8
  0
LINE
  8
0
 10
-92.6736
 20
11619.8
 11
-92.7434
 21
11620.1
  0
LINE
  8
0
 10
-92.7434
 20
11620.1
 11
-92.7858
 21
11620.3
  0
LINE
  8
0
 10
-92.7858
 20
11620.3
 11
-92.8
 21
11620.5
  0
LINE
  8
0
 10
-92.8
 20
11620.5
 11
-92.7858
 21
11620.7
  0
LINE
  8
0
 10
-92.7858
 20
11620.7
 11
-92.7434
 21
11620.9
  0
LINE
  8
0
 10
-92.7434
 20
11620.9
 11
-92.6736
 21
11621.2
  0
LINE
  8
0
 10
-92.6736
 20
11621.2
 11
-92.5773
 21
11621.4
  0
LINE
  8
0
 10
-92.5773
 20
11621.4
 11
-92.4562
 21
11621.6
  0
LINE
  8
0
 10
-92.4562
 20
11621.6
 11
-92.3121
 21
11621.7
  0
LINE
  8
0
 10
-92.3121
 20
11621.7
 11
-92.1474
 21
11621.9
  0
LINE
  8
0
 10
-92.1474
 20
11621.9
 11
-91.9645
 21
11622
  0
LINE
  8
0
 10
-91.9645
 20
11622
 11
-91.7664
 21
11622.1
  0
LINE
  8
0
 10
-91.7664
 20
11622.1
 11
-91.5562
 21
11622.2
  0
LINE
  8
0
 10
-91.5562
 20
11622.2
 11
-91.3373
 21
11622.3
  0
LINE
  8
0
 10
-91.3373
 20
11622.3
 11
-91.113
 21
11622.3
  0
LINE
  8
0
 10
-91.113
 20
11622.3
 11
-90.887
 21
11622.3
  0
LINE
  8
0
 10
-90.887
 20
11622.3
 11
-90.6627
 21
11622.3
  0
LINE
  8
0
 10
-90.6627
 20
11622.3
 11
-90.4438
 21
11622.2
  0
LINE
  8
0
 10
-90.4438
 20
11622.2
 11
-90.2336
 21
11622.1
  0
LINE
  8
0
 10
-90.2336
 20
11622.1
 11
-90.0355
 21
11622
  0
LINE
  8
0
 10
-90.0355
 20
11622
 11
-89.8526
 21
11621.9
  0
LINE
  8
0
 10
-89.8526
 20
11621.9
 11
-89.6879
 21
11621.7
  0
LINE
  8
0
 10
-89.6879
 20
11621.7
 11
-89.5438
 21
11621.6
  0
LINE
  8
0
 10
-89.5438
 20
11621.6
 11
-89.4226
 21
11621.4
  0
LINE
  8
0
 10
-89.4226
 20
11621.4
 11
-89.3264
 21
11621.2
  0
LINE
  8
0
 10
-89.3264
 20
11621.2
 11
-89.2565
 21
11620.9
  0
LINE
  8
0
 10
-89.2565
 20
11620.9
 11
-89.2142
 21
11620.7
  0
LINE
  8
0
 10
-89.2142
 20
11620.7
 11
-89.2
 21
11620.5
  0
LINE
  8
0
 10
-89.2
 20
11620.5
 11
-89.2142
 21
11620.3
  0
LINE
  8
0
 10
-89.2142
 20
11620.3
 11
-89.2565
 21
11620.1
  0
LINE
  8
0
 10
-89.2565
 20
11620.1
 11
-89.3264
 21
11619.8
  0
LINE
  8
0
 10
-89.3264
 20
11619.8
 11
-89.4226
 21
11619.6
  0
LINE
  8
0
 10
-89.4226
 20
11619.6
 11
-89.5438
 21
11619.4
  0
LINE
  8
0
 10
-89.5438
 20
11619.4
 11
-89.6879
 21
11619.3
  0
LINE
  8
0
 10
-89.6879
 20
11619.3
 11
-89.8526
 21
11619.1
  0
LINE
  8
0
 10
-89.8526
 20
11619.1
 11
-90.0355
 21
11619
  0
LINE
  8
0
 10
-90.0355
 20
11619
 11
-90.2336
 21
11618.9
  0
LINE
  8
0
 10
-90.2336
 20
11618.9
 11
-90.4438
 21
11618.8
  0
LINE
  8
0
 10
-90.4438
 20
11618.8
 11
-90.6627
 21
11618.7
  0
LINE
  8
0
 10
-90.6627
 20
11618.7
 11
-90.887
 21
11618.7
  0
LINE
  8
0
 10
-90.887
 20
11618.7
 11
-91.113
 21
11618.7
  0
LINE
  8
0
 10
90.887
 20
11618.7
 11
90.6627
 21
11618.7
  0
LINE
  8
0
 10
90.6627
 20
11618.7
 11
90.4438
 21
11618.8
  0
LINE
  8
0
 10
90.4438
 20
11618.8
 11
90.2336
 21
11618.9
  0
LINE
  8
0
 10
90.2336
 20
11618.9
 11
90.0355
 21
11619
  0
LINE
  8
0
 10
90.0355
 20
11619
 11
89.8526
 21
11619.1
  0
LINE
  8
0
 10
89.8526
 20
11619.1
 11
89.6879
 21
11619.3
  0
LINE
  8
0
 10
89.6879
 20
11619.3
 11
89.5438
 21
11619.4
  0
LINE
  8
0
 10
89.5438
 20
11619.4
 11
89.4226
 21
11619.6
  0
LINE
  8
0
 10
89.4226
 20
11619.6
 11
89.3264
 21
11619.8
  0
LINE
  8
0
 10
89.3264
 20
11619.8
 11
89.2565
 21
11620.1
  0
LINE
  8
0
 10
89.2565
 20
11620.1
 11
89.2142
 21
11620.3
  0
LINE
  8
0
 10
89.2142
 20
11620.3
 11
89.2
 21
11620.5
  0
LINE
  8
0
 10
89.2
 20
11620.5
 11
89.2142
 21
11620.7
  0
LINE
  8
0
 10
89.2142
 20
11620.7
 11
89.2565
 21
11620.9
  0
LINE
  8
0
 10
89.2565
 20
11620.9
 11
89.3264
 21
11621.2
  0
LINE
  8
0
 10
89.3264
 20
11621.2
 11
89.4226
 21
11621.4
  0
LINE
  8
0
 10
89.4226
 20
11621.4
 11
89.5438
 21
11621.6
  0
LINE
  8
0
 10
89.5438
 20
11621.6
 11
89.6879
 21
11621.7
  0
LINE
  8
0
 10
89.6879
 20
11621.7
 11
89.8526
 21
11621.9
  0
LINE
  8
0
 10
89.8526
 20
11621.9
 11
90.0355
 21
11622
  0
LINE
  8
0
 10
90.0355
 20
11622
 11
90.2336
 21
11622.1
  0
LINE
  8
0
 10
90.2336
 20
11622.1
 11
90.4438
 21
11622.2
  0
LINE
  8
0
 10
90.4438
 20
11622.2
 11
90.6627
 21
11622.3
  0
LINE
  8
0
 10
90.6627
 20
11622.3
 11
90.887
 21
11622.3
  0
LINE
  8
0
 10
90.887
 20
11622.3
 11
91.113
 21
11622.3
  0
LINE
  8
0
 10
91.113
 20
11622.3
 11
91.3373
 21
11622.3
  0
LINE
  8
0
 10
91.3373
 20
11622.3
 11
91.5562
 21
11622.2
  0
LINE
  8
0
 10
91.5562
 20
11622.2
 11
91.7664
 21
11622.1
  0
LINE
  8
0
 10
91.7664
 20
11622.1
 11
91.9645
 21
11622
  0
LINE
  8
0
 10
91.9645
 20
11622
 11
92.1474
 21
11621.9
  0
LINE
  8
0
 10
92.1474
 20
11621.9
 11
92.3121
 21
11621.7
  0
LINE
  8
0
 10
92.3121
 20
11621.7
 11
92.4562
 21
11621.6
  0
LINE
  8
0
 10
92.4562
 20
11621.6
 11
92.5773
 21
11621.4
  0
LINE
  8
0
 10
92.5773
 20
11621.4
 11
92.6736
 21
11621.2
  0
LINE
  8
0
 10
92.6736
 20
11621.2
 11
92.7434
 21
11620.9
  0
LINE
  8
0
 10
92.7434
 20
11620.9
 11
92.7858
 21
11620.7
  0
LINE
  8
0
 10
92.7858
 20
11620.7
 11
92.8
 21
11620.5
  0
LINE
  8
0
 10
92.8
 20
11620.5
 11
92.7858
 21
11620.3
  0
LINE
  8
0
 10
92.7858
 20
11620.3
 11
92.7434
 21
11620.1
  0
LINE
  8
0
 10
92.7434
 20
11620.1
 11
92.6736
 21
11619.8
  0
LINE
  8
0
 10
92.6736
 20
11619.8
 11
92.5773
 21
11619.6
  0
LINE
  8
0
 10
92.5773
 20
11619.6
 11
92.4562
 21
11619.4
  0
LINE
  8
0
 10
92.4562
 20
11619.4
 11
92.3121
 21
11619.3
  0
LINE
  8
0
 10
92.3121
 20
11619.3
 11
92.1474
 21
11619.1
  0
LINE
  8
0
 10
92.1474
 20
11619.1
 11
91.9645
 21
11619
  0
LINE
  8
0
 10
91.9645
 20
11619
 11
91.7664
 21
11618.9
  0
LINE
  8
0
 10
91.7664
 20
11618.9
 11
91.5562
 21
11618.8
  0
LINE
  8
0
 10
91.5562
 20
11618.8
 11
91.3373
 21
11618.7
  0
LINE
  8
0
 10
91.3373
 20
11618.7
 11
91.113
 21
11618.7
  0
LINE
  8
0
 10
91.113
 20
11618.7
 11
90.887
 21
11618.7
  0
LINE
  8
0
 10
-84.8139
 20
11382.5
 11
-85.4369
 21
11382.6
  0
LINE
  8
0
 10
-85.4369
 20
11382.6
 11
-86.0451
 21
11382.7
  0
LINE
  8
0
 10
-86.0451
 20
11382.7
 11
-86.6289
 21
11383
  0
LINE
  8
0
 10
-86.6289
 20
11383
 11
-87.1791
 21
11383.3
  0
LINE
  8
0
 10
-87.1791
 20
11383.3
 11
-87.6871
 21
11383.6
  0
LINE
  8
0
 10
-87.6871
 20
11383.6
 11
-88.1448
 21
11384.1
  0
LINE
  8
0
 10
-88.1448
 20
11384.1
 11
-88.5451
 21
11384.6
  0
LINE
  8
0
 10
-88.5451
 20
11384.6
 11
-88.8815
 21
11385.1
  0
LINE
  8
0
 10
-88.8815
 20
11385.1
 11
-89.1489
 21
11385.7
  0
LINE
  8
0
 10
-89.1489
 20
11385.7
 11
-89.3429
 21
11386.3
  0
LINE
  8
0
 10
-89.3429
 20
11386.3
 11
-89.4606
 21
11386.9
  0
LINE
  8
0
 10
-89.4606
 20
11386.9
 11
-89.5
 21
11387.5
  0
LINE
  8
0
 10
-89.5
 20
11387.5
 11
-89.5
 21
11616.5
  0
LINE
  8
0
 10
-89.5
 20
11616.5
 11
-89.4606
 21
11617.1
  0
LINE
  8
0
 10
-89.4606
 20
11617.1
 11
-89.3429
 21
11617.7
  0
LINE
  8
0
 10
-89.3429
 20
11617.7
 11
-89.1489
 21
11618.3
  0
LINE
  8
0
 10
-89.1489
 20
11618.3
 11
-88.8815
 21
11618.9
  0
LINE
  8
0
 10
-88.8815
 20
11618.9
 11
-88.5451
 21
11619.4
  0
LINE
  8
0
 10
-88.5451
 20
11619.4
 11
-88.1448
 21
11619.9
  0
LINE
  8
0
 10
-88.1448
 20
11619.9
 11
-87.6871
 21
11620.4
  0
LINE
  8
0
 10
-87.6871
 20
11620.4
 11
-87.1791
 21
11620.7
  0
LINE
  8
0
 10
-87.1791
 20
11620.7
 11
-86.6289
 21
11621
  0
LINE
  8
0
 10
-86.6289
 20
11621
 11
-86.0451
 21
11621.3
  0
LINE
  8
0
 10
-86.0451
 20
11621.3
 11
-85.4369
 21
11621.4
  0
LINE
  8
0
 10
-85.4369
 20
11621.4
 11
-84.8139
 21
11621.5
  0
LINE
  8
0
 10
-84.8139
 20
11621.5
 11
84.8139
 21
11621.5
  0
LINE
  8
0
 10
84.8139
 20
11621.5
 11
85.4369
 21
11621.4
  0
LINE
  8
0
 10
85.4369
 20
11621.4
 11
86.0451
 21
11621.3
  0
LINE
  8
0
 10
86.0451
 20
11621.3
 11
86.6289
 21
11621
  0
LINE
  8
0
 10
86.6289
 20
11621
 11
87.1791
 21
11620.7
  0
LINE
  8
0
 10
87.1791
 20
11620.7
 11
87.6871
 21
11620.4
  0
LINE
  8
0
 10
87.6871
 20
11620.4
 11
88.1448
 21
11619.9
  0
LINE
  8
0
 10
88.1448
 20
11619.9
 11
88.5451
 21
11619.4
  0
LINE
  8
0
 10
88.5451
 20
11619.4
 11
88.8815
 21
11618.9
  0
LINE
  8
0
 10
88.8815
 20
11618.9
 11
89.1489
 21
11618.3
  0
LINE
  8
0
 10
89.1489
 20
11618.3
 11
89.3429
 21
11617.7
  0
LINE
  8
0
 10
89.3429
 20
11617.7
 11
89.4606
 21
11617.1
  0
LINE
  8
0
 10
89.4606
 20
11617.1
 11
89.5
 21
11616.5
  0
LINE
  8
0
 10
89.5
 20
11616.5
 11
89.5
 21
11387.5
  0
LINE
  8
0
 10
89.5
 20
11387.5
 11
89.4606
 21
11386.9
  0
LINE
  8
0
 10
89.4606
 20
11386.9
 11
89.3429
 21
11386.3
  0
LINE
  8
0
 10
89.3429
 20
11386.3
 11
89.1489
 21
11385.7
  0
LINE
  8
0
 10
89.1489
 20
11385.7
 11
88.8815
 21
11385.1
  0
LINE
  8
0
 10
88.8815
 20
11385.1
 11
88.5451
 21
11384.6
  0
LINE
  8
0
 10
88.5451
 20
11384.6
 11
88.1448
 21
11384.1
  0
LINE
  8
0
 10
88.1448
 20
11384.1
 11
87.6871
 21
11383.6
  0
LINE
  8
0
 10
87.6871
 20
11383.6
 11
87.1791
 21
11383.3
  0
LINE
  8
0
 10
87.1791
 20
11383.3
 11
86.6289
 21
11383
  0
LINE
  8
0
 10
86.6289
 20
11383
 11
86.0451
 21
11382.7
  0
LINE
  8
0
 10
86.0451
 20
11382.7
 11
85.4369
 21
11382.6
  0
LINE
  8
0
 10
85.4369
 20
11382.6
 11
84.8139
 21
11382.5
  0
LINE
  8
0
 10
84.8139
 20
11382.5
 11
-84.8139
 21
11382.5
  0
LINE
  8
0
 10
-91.113
 20
11381.7
 11
-91.3373
 21
11381.7
  0
LINE
  8
0
 10
-91.3373
 20
11381.7
 11
-91.5562
 21
11381.8
  0
LINE
  8
0
 10
-91.5562
 20
11381.8
 11
-91.7664
 21
11381.9
  0
LINE
  8
0
 10
-91.7664
 20
11381.9
 11
-91.9645
 21
11382
  0
LINE
  8
0
 10
-91.9645
 20
11382
 11
-92.1474
 21
11382.1
  0
LINE
  8
0
 10
-92.1474
 20
11382.1
 11
-92.3121
 21
11382.3
  0
LINE
  8
0
 10
-92.3121
 20
11382.3
 11
-92.4562
 21
11382.4
  0
LINE
  8
0
 10
-92.4562
 20
11382.4
 11
-92.5773
 21
11382.6
  0
LINE
  8
0
 10
-92.5773
 20
11382.6
 11
-92.6736
 21
11382.8
  0
LINE
  8
0
 10
-92.6736
 20
11382.8
 11
-92.7434
 21
11383.1
  0
LINE
  8
0
 10
-92.7434
 20
11383.1
 11
-92.7858
 21
11383.3
  0
LINE
  8
0
 10
-92.7858
 20
11383.3
 11
-92.8
 21
11383.5
  0
LINE
  8
0
 10
-92.8
 20
11383.5
 11
-92.7858
 21
11383.7
  0
LINE
  8
0
 10
-92.7858
 20
11383.7
 11
-92.7434
 21
11383.9
  0
LINE
  8
0
 10
-92.7434
 20
11383.9
 11
-92.6736
 21
11384.2
  0
LINE
  8
0
 10
-92.6736
 20
11384.2
 11
-92.5773
 21
11384.4
  0
LINE
  8
0
 10
-92.5773
 20
11384.4
 11
-92.4562
 21
11384.6
  0
LINE
  8
0
 10
-92.4562
 20
11384.6
 11
-92.3121
 21
11384.7
  0
LINE
  8
0
 10
-92.3121
 20
11384.7
 11
-92.1474
 21
11384.9
  0
LINE
  8
0
 10
-92.1474
 20
11384.9
 11
-91.9645
 21
11385
  0
LINE
  8
0
 10
-91.9645
 20
11385
 11
-91.7664
 21
11385.1
  0
LINE
  8
0
 10
-91.7664
 20
11385.1
 11
-91.5562
 21
11385.2
  0
LINE
  8
0
 10
-91.5562
 20
11385.2
 11
-91.3373
 21
11385.3
  0
LINE
  8
0
 10
-91.3373
 20
11385.3
 11
-91.113
 21
11385.3
  0
LINE
  8
0
 10
-91.113
 20
11385.3
 11
-90.887
 21
11385.3
  0
LINE
  8
0
 10
-90.887
 20
11385.3
 11
-90.6627
 21
11385.3
  0
LINE
  8
0
 10
-90.6627
 20
11385.3
 11
-90.4438
 21
11385.2
  0
LINE
  8
0
 10
-90.4438
 20
11385.2
 11
-90.2336
 21
11385.1
  0
LINE
  8
0
 10
-90.2336
 20
11385.1
 11
-90.0355
 21
11385
  0
LINE
  8
0
 10
-90.0355
 20
11385
 11
-89.8526
 21
11384.9
  0
LINE
  8
0
 10
-89.8526
 20
11384.9
 11
-89.6879
 21
11384.7
  0
LINE
  8
0
 10
-89.6879
 20
11384.7
 11
-89.5438
 21
11384.6
  0
LINE
  8
0
 10
-89.5438
 20
11384.6
 11
-89.4226
 21
11384.4
  0
LINE
  8
0
 10
-89.4226
 20
11384.4
 11
-89.3264
 21
11384.2
  0
LINE
  8
0
 10
-89.3264
 20
11384.2
 11
-89.2565
 21
11383.9
  0
LINE
  8
0
 10
-89.2565
 20
11383.9
 11
-89.2142
 21
11383.7
  0
LINE
  8
0
 10
-89.2142
 20
11383.7
 11
-89.2
 21
11383.5
  0
LINE
  8
0
 10
-89.2
 20
11383.5
 11
-89.2142
 21
11383.3
  0
LINE
  8
0
 10
-89.2142
 20
11383.3
 11
-89.2565
 21
11383.1
  0
LINE
  8
0
 10
-89.2565
 20
11383.1
 11
-89.3264
 21
11382.8
  0
LINE
  8
0
 10
-89.3264
 20
11382.8
 11
-89.4226
 21
11382.6
  0
LINE
  8
0
 10
-89.4226
 20
11382.6
 11
-89.5438
 21
11382.4
  0
LINE
  8
0
 10
-89.5438
 20
11382.4
 11
-89.6879
 21
11382.3
  0
LINE
  8
0
 10
-89.6879
 20
11382.3
 11
-89.8526
 21
11382.1
  0
LINE
  8
0
 10
-89.8526
 20
11382.1
 11
-90.0355
 21
11382
  0
LINE
  8
0
 10
-90.0355
 20
11382
 11
-90.2336
 21
11381.9
  0
LINE
  8
0
 10
-90.2336
 20
11381.9
 11
-90.4438
 21
11381.8
  0
LINE
  8
0
 10
-90.4438
 20
11381.8
 11
-90.6627
 21
11381.7
  0
LINE
  8
0
 10
-90.6627
 20
11381.7
 11
-90.887
 21
11381.7
  0
LINE
  8
0
 10
-90.887
 20
11381.7
 11
-91.113
 21
11381.7
  0
LINE
  8
0
 10
90.887
 20
11381.7
 11
90.6627
 21
11381.7
  0
LINE
  8
0
 10
90.6627
 20
11381.7
 11
90.4438
 21
11381.8
  0
LINE
  8
0
 10
90.4438
 20
11381.8
 11
90.2336
 21
11381.9
  0
LINE
  8
0
 10
90.2336
 20
11381.9
 11
90.0355
 21
11382
  0
LINE
  8
0
 10
90.0355
 20
11382
 11
89.8526
 21
11382.1
  0
LINE
  8
0
 10
89.8526
 20
11382.1
 11
89.6879
 21
11382.3
  0
LINE
  8
0
 10
89.6879
 20
11382.3
 11
89.5438
 21
11382.4
  0
LINE
  8
0
 10
89.5438
 20
11382.4
 11
89.4226
 21
11382.6
  0
LINE
  8
0
 10
89.4226
 20
11382.6
 11
89.3264
 21
11382.8
  0
LINE
  8
0
 10
89.3264
 20
11382.8
 11
89.2565
 21
11383.1
  0
LINE
  8
0
 10
89.2565
 20
11383.1
 11
89.2142
 21
11383.3
  0
LINE
  8
0
 10
89.2142
 20
11383.3
 11
89.2
 21
11383.5
  0
LINE
  8
0
 10
89.2
 20
11383.5
 11
89.2142
 21
11383.7
  0
LINE
  8
0
 10
89.2142
 20
11383.7
 11
89.2565
 21
11383.9
  0
LINE
  8
0
 10
89.2565
 20
11383.9
 11
89.3264
 21
11384.2
  0
LINE
  8
0
 10
89.3264
 20
11384.2
 11
89.4226
 21
11384.4
  0
LINE
  8
0
 10
89.4226
 20
11384.4
 11
89.5438
 21
11384.6
  0
LINE
  8
0
 10
89.5438
 20
11384.6
 11
89.6879
 21
11384.7
  0
LINE
  8
0
 10
89.6879
 20
11384.7
 11
89.8526
 21
11384.9
  0
LINE
  8
0
 10
89.8526
 20
11384.9
 11
90.0355
 21
11385
  0
LINE
  8
0
 10
90.0355
 20
11385
 11
90.2336
 21
11385.1
  0
LINE
  8
0
 10
90.2336
 20
11385.1
 11
90.4438
 21
11385.2
  0
LINE
  8
0
 10
90.4438
 20
11385.2
 11
90.6627
 21
11385.3
  0
LINE
  8
0
 10
90.6627
 20
11385.3
 11
90.887
 21
11385.3
  0
LINE
  8
0
 10
90.887
 20
11385.3
 11
91.113
 21
11385.3
  0
LINE
  8
0
 10
91.113
 20
11385.3
 11
91.3373
 21
11385.3
  0
LINE
  8
0
 10
91.3373
 20
11385.3
 11
91.5562
 21
11385.2
  0
LINE
  8
0
 10
91.5562
 20
11385.2
 11
91.7664
 21
11385.1
  0
LINE
  8
0
 10
91.7664
 20
11385.1
 11
91.9645
 21
11385
  0
LINE
  8
0
 10
91.9645
 20
11385
 11
92.1474
 21
11384.9
  0
LINE
  8
0
 10
92.1474
 20
11384.9
 11
92.3121
 21
11384.7
  0
LINE
  8
0
 10
92.3121
 20
11384.7
 11
92.4562
 21
11384.6
  0
LINE
  8
0
 10
92.4562
 20
11384.6
 11
92.5773
 21
11384.4
  0
LINE
  8
0
 10
92.5773
 20
11384.4
 11
92.6736
 21
11384.2
  0
LINE
  8
0
 10
92.6736
 20
11384.2
 11
92.7434
 21
11383.9
  0
LINE
  8
0
 10
92.7434
 20
11383.9
 11
92.7858
 21
11383.7
  0
LINE
  8
0
 10
92.7858
 20
11383.7
 11
92.8
 21
11383.5
  0
LINE
  8
0
 10
92.8
 20
11383.5
 11
92.7858
 21
11383.3
  0
LINE
  8
0
 10
92.7858
 20
11383.3
 11
92.7434
 21
11383.1
  0
LINE
  8
0
 10
92.7434
 20
11383.1
 11
92.6736
 21
11382.8
  0
LINE
  8
0
 10
92.6736
 20
11382.8
 11
92.5773
 21
11382.6
  0
LINE
  8
0
 10
92.5773
 20
11382.6
 11
92.4562
 21
11382.4
  0
LINE
  8
0
 10
92.4562
 20
11382.4
 11
92.3121
 21
11382.3
  0
LINE
  8
0
 10
92.3121
 20
11382.3
 11
92.1474
 21
11382.1
  0
LINE
  8
0
 10
92.1474
 20
11382.1
 11
91.9645
 21
11382
  0
LINE
  8
0
 10
91.9645
 20
11382
 11
91.7664
 21
11381.9
  0
LINE
  8
0
 10
91.7664
 20
11381.9
 11
91.5562
 21
11381.8
  0
LINE
  8
0
 10
91.5562
 20
11381.8
 11
91.3373
 21
11381.7
  0
LINE
  8
0
 10
91.3373
 20
11381.7
 11
91.113
 21
11381.7
  0
LINE
  8
0
 10
91.113
 20
11381.7
 11
90.887
 21
11381.7
  0
LINE
  8
0
 10
95
 20
7790.5
 11
-95
 21
7790.5
  0
LINE
  8
0
 10
-95
 20
7790.5
 11
-95
 21
7545.5
  0
LINE
  8
0
 10
-95
 20
7545.5
 11
95
 21
7545.5
  0
LINE
  8
0
 10
95
 20
7545.5
 11
95
 21
7790.5
  0
LINE
  8
0
 10
-91.113
 20
7784.7
 11
-91.3373
 21
7784.73
  0
LINE
  8
0
 10
-91.3373
 20
7784.73
 11
-91.5562
 21
7784.79
  0
LINE
  8
0
 10
-91.5562
 20
7784.79
 11
-91.7664
 21
7784.87
  0
LINE
  8
0
 10
-91.7664
 20
7784.87
 11
-91.9645
 21
7784.98
  0
LINE
  8
0
 10
-91.9645
 20
7784.98
 11
-92.1474
 21
7785.11
  0
LINE
  8
0
 10
-92.1474
 20
7785.11
 11
-92.3121
 21
7785.27
  0
LINE
  8
0
 10
-92.3121
 20
7785.27
 11
-92.4562
 21
7785.44
  0
LINE
  8
0
 10
-92.4562
 20
7785.44
 11
-92.5773
 21
7785.63
  0
LINE
  8
0
 10
-92.5773
 20
7785.63
 11
-92.6736
 21
7785.84
  0
LINE
  8
0
 10
-92.6736
 20
7785.84
 11
-92.7434
 21
7786.05
  0
LINE
  8
0
 10
-92.7434
 20
7786.05
 11
-92.7858
 21
7786.27
  0
LINE
  8
0
 10
-92.7858
 20
7786.27
 11
-92.8
 21
7786.5
  0
LINE
  8
0
 10
-92.8
 20
7786.5
 11
-92.7858
 21
7786.73
  0
LINE
  8
0
 10
-92.7858
 20
7786.73
 11
-92.7434
 21
7786.95
  0
LINE
  8
0
 10
-92.7434
 20
7786.95
 11
-92.6736
 21
7787.16
  0
LINE
  8
0
 10
-92.6736
 20
7787.16
 11
-92.5773
 21
7787.37
  0
LINE
  8
0
 10
-92.5773
 20
7787.37
 11
-92.4562
 21
7787.56
  0
LINE
  8
0
 10
-92.4562
 20
7787.56
 11
-92.3121
 21
7787.73
  0
LINE
  8
0
 10
-92.3121
 20
7787.73
 11
-92.1474
 21
7787.89
  0
LINE
  8
0
 10
-92.1474
 20
7787.89
 11
-91.9645
 21
7788.02
  0
LINE
  8
0
 10
-91.9645
 20
7788.02
 11
-91.7664
 21
7788.13
  0
LINE
  8
0
 10
-91.7664
 20
7788.13
 11
-91.5562
 21
7788.21
  0
LINE
  8
0
 10
-91.5562
 20
7788.21
 11
-91.3373
 21
7788.27
  0
LINE
  8
0
 10
-91.3373
 20
7788.27
 11
-91.113
 21
7788.3
  0
LINE
  8
0
 10
-91.113
 20
7788.3
 11
-90.887
 21
7788.3
  0
LINE
  8
0
 10
-90.887
 20
7788.3
 11
-90.6627
 21
7788.27
  0
LINE
  8
0
 10
-90.6627
 20
7788.27
 11
-90.4438
 21
7788.21
  0
LINE
  8
0
 10
-90.4438
 20
7788.21
 11
-90.2336
 21
7788.13
  0
LINE
  8
0
 10
-90.2336
 20
7788.13
 11
-90.0355
 21
7788.02
  0
LINE
  8
0
 10
-90.0355
 20
7788.02
 11
-89.8526
 21
7787.89
  0
LINE
  8
0
 10
-89.8526
 20
7787.89
 11
-89.6879
 21
7787.73
  0
LINE
  8
0
 10
-89.6879
 20
7787.73
 11
-89.5438
 21
7787.56
  0
LINE
  8
0
 10
-89.5438
 20
7787.56
 11
-89.4226
 21
7787.37
  0
LINE
  8
0
 10
-89.4226
 20
7787.37
 11
-89.3264
 21
7787.16
  0
LINE
  8
0
 10
-89.3264
 20
7787.16
 11
-89.2565
 21
7786.95
  0
LINE
  8
0
 10
-89.2565
 20
7786.95
 11
-89.2142
 21
7786.73
  0
LINE
  8
0
 10
-89.2142
 20
7786.73
 11
-89.2
 21
7786.5
  0
LINE
  8
0
 10
-89.2
 20
7786.5
 11
-89.2142
 21
7786.27
  0
LINE
  8
0
 10
-89.2142
 20
7786.27
 11
-89.2565
 21
7786.05
  0
LINE
  8
0
 10
-89.2565
 20
7786.05
 11
-89.3264
 21
7785.84
  0
LINE
  8
0
 10
-89.3264
 20
7785.84
 11
-89.4226
 21
7785.63
  0
LINE
  8
0
 10
-89.4226
 20
7785.63
 11
-89.5438
 21
7785.44
  0
LINE
  8
0
 10
-89.5438
 20
7785.44
 11
-89.6879
 21
7785.27
  0
LINE
  8
0
 10
-89.6879
 20
7785.27
 11
-89.8526
 21
7785.11
  0
LINE
  8
0
 10
-89.8526
 20
7785.11
 11
-90.0355
 21
7784.98
  0
LINE
  8
0
 10
-90.0355
 20
7784.98
 11
-90.2336
 21
7784.87
  0
LINE
  8
0
 10
-90.2336
 20
7784.87
 11
-90.4438
 21
7784.79
  0
LINE
  8
0
 10
-90.4438
 20
7784.79
 11
-90.6627
 21
7784.73
  0
LINE
  8
0
 10
-90.6627
 20
7784.73
 11
-90.887
 21
7784.7
  0
LINE
  8
0
 10
-90.887
 20
7784.7
 11
-91.113
 21
7784.7
  0
LINE
  8
0
 10
90.887
 20
7784.7
 11
90.6627
 21
7784.73
  0
LINE
  8
0
 10
90.6627
 20
7784.73
 11
90.4438
 21
7784.79
  0
LINE
  8
0
 10
90.4438
 20
7784.79
 11
90.2336
 21
7784.87
  0
LINE
  8
0
 10
90.2336
 20
7784.87
 11
90.0355
 21
7784.98
  0
LINE
  8
0
 10
90.0355
 20
7784.98
 11
89.8526
 21
7785.11
  0
LINE
  8
0
 10
89.8526
 20
7785.11
 11
89.6879
 21
7785.27
  0
LINE
  8
0
 10
89.6879
 20
7785.27
 11
89.5438
 21
7785.44
  0
LINE
  8
0
 10
89.5438
 20
7785.44
 11
89.4226
 21
7785.63
  0
LINE
  8
0
 10
89.4226
 20
7785.63
 11
89.3264
 21
7785.84
  0
LINE
  8
0
 10
89.3264
 20
7785.84
 11
89.2565
 21
7786.05
  0
LINE
  8
0
 10
89.2565
 20
7786.05
 11
89.2142
 21
7786.27
  0
LINE
  8
0
 10
89.2142
 20
7786.27
 11
89.2
 21
7786.5
  0
LINE
  8
0
 10
89.2
 20
7786.5
 11
89.2142
 21
7786.73
  0
LINE
  8
0
 10
89.2142
 20
7786.73
 11
89.2565
 21
7786.95
  0
LINE
  8
0
 10
89.2565
 20
7786.95
 11
89.3264
 21
7787.16
  0
LINE
  8
0
 10
89.3264
 20
7787.16
 11
89.4226
 21
7787.37
  0
LINE
  8
0
 10
89.4226
 20
7787.37
 11
89.5438
 21
7787.56
  0
LINE
  8
0
 10
89.5438
 20
7787.56
 11
89.6879
 21
7787.73
  0
LINE
  8
0
 10
89.6879
 20
7787.73
 11
89.8526
 21
7787.89
  0
LINE
  8
0
 10
89.8526
 20
7787.89
 11
90.0355
 21
7788.02
  0
LINE
  8
0
 10
90.0355
 20
7788.02
 11
90.2336
 21
7788.13
  0
LINE
  8
0
 10
90.2336
 20
7788.13
 11
90.4438
 21
7788.21
  0
LINE
  8
0
 10
90.4438
 20
7788.21
 11
90.6627
 21
7788.27
  0
LINE
  8
0
 10
90.6627
 20
7788.27
 11
90.887
 21
7788.3
  0
LINE
  8
0
 10
90.887
 20
7788.3
 11
91.113
 21
7788.3
  0
LINE
  8
0
 10
91.113
 20
7788.3
 11
91.3373
 21
7788.27
  0
LINE
  8
0
 10
91.3373
 20
7788.27
 11
91.5562
 21
7788.21
  0
LINE
  8
0
 10
91.5562
 20
7788.21
 11
91.7664
 21
7788.13
  0
LINE
  8
0
 10
91.7664
 20
7788.13
 11
91.9645
 21
7788.02
  0
LINE
  8
0
 10
91.9645
 20
7788.02
 11
92.1474
 21
7787.89
  0
LINE
  8
0
 10
92.1474
 20
7787.89
 11
92.3121
 21
7787.73
  0
LINE
  8
0
 10
92.3121
 20
7787.73
 11
92.4562
 21
7787.56
  0
LINE
  8
0
 10
92.4562
 20
7787.56
 11
92.5773
 21
7787.37
  0
LINE
  8
0
 10
92.5773
 20
7787.37
 11
92.6736
 21
7787.16
  0
LINE
  8
0
 10
92.6736
 20
7787.16
 11
92.7434
 21
7786.95
  0
LINE
  8
0
 10
92.7434
 20
7786.95
 11
92.7858
 21
7786.73
  0
LINE
  8
0
 10
92.7858
 20
7786.73
 11
92.8
 21
7786.5
  0
LINE
  8
0
 10
92.8
 20
7786.5
 11
92.7858
 21
7786.27
  0
LINE
  8
0
 10
92.7858
 20
7786.27
 11
92.7434
 21
7786.05
  0
LINE
  8
0
 10
92.7434
 20
7786.05
 11
92.6736
 21
7785.84
  0
LINE
  8
0
 10
92.6736
 20
7785.84
 11
92.5773
 21
7785.63
  0
LINE
  8
0
 10
92.5773
 20
7785.63
 11
92.4562
 21
7785.44
  0
LINE
  8
0
 10
92.4562
 20
7785.44
 11
92.3121
 21
7785.27
  0
LINE
  8
0
 10
92.3121
 20
7785.27
 11
92.1474
 21
7785.11
  0
LINE
  8
0
 10
92.1474
 20
7785.11
 11
91.9645
 21
7784.98
  0
LINE
  8
0
 10
91.9645
 20
7784.98
 11
91.7664
 21
7784.87
  0
LINE
  8
0
 10
91.7664
 20
7784.87
 11
91.5562
 21
7784.79
  0
LINE
  8
0
 10
91.5562
 20
7784.79
 11
91.3373
 21
7784.73
  0
LINE
  8
0
 10
91.3373
 20
7784.73
 11
91.113
 21
7784.7
  0
LINE
  8
0
 10
91.113
 20
7784.7
 11
90.887
 21
7784.7
  0
LINE
  8
0
 10
-84.8139
 20
7548.51
 11
-85.4369
 21
7548.59
  0
LINE
  8
0
 10
-85.4369
 20
7548.59
 11
-86.0451
 21
7548.74
  0
LINE
  8
0
 10
-86.0451
 20
7548.74
 11
-86.6289
 21
7548.98
  0
LINE
  8
0
 10
-86.6289
 20
7548.98
 11
-87.1791
 21
7549.28
  0
LINE
  8
0
 10
-87.1791
 20
7549.28
 11
-87.6871
 21
7549.65
  0
LINE
  8
0
 10
-87.6871
 20
7549.65
 11
-88.1448
 21
7550.08
  0
LINE
  8
0
 10
-88.1448
 20
7550.08
 11
-88.5451
 21
7550.56
  0
LINE
  8
0
 10
-88.5451
 20
7550.56
 11
-88.8815
 21
7551.09
  0
LINE
  8
0
 10
-88.8815
 20
7551.09
 11
-89.1489
 21
7551.66
  0
LINE
  8
0
 10
-89.1489
 20
7551.66
 11
-89.3429
 21
7552.26
  0
LINE
  8
0
 10
-89.3429
 20
7552.26
 11
-89.4606
 21
7552.87
  0
LINE
  8
0
 10
-89.4606
 20
7552.87
 11
-89.5
 21
7553.5
  0
LINE
  8
0
 10
-89.5
 20
7553.5
 11
-89.5
 21
7782.5
  0
LINE
  8
0
 10
-89.5
 20
7782.5
 11
-89.4606
 21
7783.13
  0
LINE
  8
0
 10
-89.4606
 20
7783.13
 11
-89.3429
 21
7783.74
  0
LINE
  8
0
 10
-89.3429
 20
7783.74
 11
-89.1489
 21
7784.34
  0
LINE
  8
0
 10
-89.1489
 20
7784.34
 11
-88.8815
 21
7784.91
  0
LINE
  8
0
 10
-88.8815
 20
7784.91
 11
-88.5451
 21
7785.44
  0
LINE
  8
0
 10
-88.5451
 20
7785.44
 11
-88.1448
 21
7785.92
  0
LINE
  8
0
 10
-88.1448
 20
7785.92
 11
-87.6871
 21
7786.35
  0
LINE
  8
0
 10
-87.6871
 20
7786.35
 11
-87.1791
 21
7786.72
  0
LINE
  8
0
 10
-87.1791
 20
7786.72
 11
-86.6289
 21
7787.02
  0
LINE
  8
0
 10
-86.6289
 20
7787.02
 11
-86.0451
 21
7787.26
  0
LINE
  8
0
 10
-86.0451
 20
7787.26
 11
-85.4369
 21
7787.41
  0
LINE
  8
0
 10
-85.4369
 20
7787.41
 11
-84.8139
 21
7787.49
  0
LINE
  8
0
 10
-84.8139
 20
7787.49
 11
84.8139
 21
7787.49
  0
LINE
  8
0
 10
84.8139
 20
7787.49
 11
85.4369
 21
7787.41
  0
LINE
  8
0
 10
85.4369
 20
7787.41
 11
86.0451
 21
7787.26
  0
LINE
  8
0
 10
86.0451
 20
7787.26
 11
86.6289
 21
7787.02
  0
LINE
  8
0
 10
86.6289
 20
7787.02
 11
87.1791
 21
7786.72
  0
LINE
  8
0
 10
87.1791
 20
7786.72
 11
87.6871
 21
7786.35
  0
LINE
  8
0
 10
87.6871
 20
7786.35
 11
88.1448
 21
7785.92
  0
LINE
  8
0
 10
88.1448
 20
7785.92
 11
88.5451
 21
7785.44
  0
LINE
  8
0
 10
88.5451
 20
7785.44
 11
88.8815
 21
7784.91
  0
LINE
  8
0
 10
88.8815
 20
7784.91
 11
89.1489
 21
7784.34
  0
LINE
  8
0
 10
89.1489
 20
7784.34
 11
89.3429
 21
7783.74
  0
LINE
  8
0
 10
89.3429
 20
7783.74
 11
89.4606
 21
7783.13
  0
LINE
  8
0
 10
89.4606
 20
7783.13
 11
89.5
 21
7782.5
  0
LINE
  8
0
 10
89.5
 20
7782.5
 11
89.5
 21
7553.5
  0
LINE
  8
0
 10
89.5
 20
7553.5
 11
89.4606
 21
7552.87
  0
LINE
  8
0
 10
89.4606
 20
7552.87
 11
89.3429
 21
7552.26
  0
LINE
  8
0
 10
89.3429
 20
7552.26
 11
89.1489
 21
7551.66
  0
LINE
  8
0
 10
89.1489
 20
7551.66
 11
88.8815
 21
7551.09
  0
LINE
  8
0
 10
88.8815
 20
7551.09
 11
88.5451
 21
7550.56
  0
LINE
  8
0
 10
88.5451
 20
7550.56
 11
88.1448
 21
7550.08
  0
LINE
  8
0
 10
88.1448
 20
7550.08
 11
87.6871
 21
7549.65
  0
LINE
  8
0
 10
87.6871
 20
7549.65
 11
87.1791
 21
7549.28
  0
LINE
  8
0
 10
87.1791
 20
7549.28
 11
86.6289
 21
7548.98
  0
LINE
  8
0
 10
86.6289
 20
7548.98
 11
86.0451
 21
7548.74
  0
LINE
  8
0
 10
86.0451
 20
7548.74
 11
85.4369
 21
7548.59
  0
LINE
  8
0
 10
85.4369
 20
7548.59
 11
84.8139
 21
7548.51
  0
LINE
  8
0
 10
84.8139
 20
7548.51
 11
-84.8139
 21
7548.51
  0
LINE
  8
0
 10
-91.113
 20
7547.7
 11
-91.3373
 21
7547.73
  0
LINE
  8
0
 10
-91.3373
 20
7547.73
 11
-91.5562
 21
7547.79
  0
LINE
  8
0
 10
-91.5562
 20
7547.79
 11
-91.7664
 21
7547.87
  0
LINE
  8
0
 10
-91.7664
 20
7547.87
 11
-91.9645
 21
7547.98
  0
LINE
  8
0
 10
-91.9645
 20
7547.98
 11
-92.1474
 21
7548.11
  0
LINE
  8
0
 10
-92.1474
 20
7548.11
 11
-92.3121
 21
7548.27
  0
LINE
  8
0
 10
-92.3121
 20
7548.27
 11
-92.4562
 21
7548.44
  0
LINE
  8
0
 10
-92.4562
 20
7548.44
 11
-92.5773
 21
7548.63
  0
LINE
  8
0
 10
-92.5773
 20
7548.63
 11
-92.6736
 21
7548.84
  0
LINE
  8
0
 10
-92.6736
 20
7548.84
 11
-92.7434
 21
7549.05
  0
LINE
  8
0
 10
-92.7434
 20
7549.05
 11
-92.7858
 21
7549.27
  0
LINE
  8
0
 10
-92.7858
 20
7549.27
 11
-92.8
 21
7549.5
  0
LINE
  8
0
 10
-92.8
 20
7549.5
 11
-92.7858
 21
7549.73
  0
LINE
  8
0
 10
-92.7858
 20
7549.73
 11
-92.7434
 21
7549.95
  0
LINE
  8
0
 10
-92.7434
 20
7549.95
 11
-92.6736
 21
7550.16
  0
LINE
  8
0
 10
-92.6736
 20
7550.16
 11
-92.5773
 21
7550.37
  0
LINE
  8
0
 10
-92.5773
 20
7550.37
 11
-92.4562
 21
7550.56
  0
LINE
  8
0
 10
-92.4562
 20
7550.56
 11
-92.3121
 21
7550.73
  0
LINE
  8
0
 10
-92.3121
 20
7550.73
 11
-92.1474
 21
7550.89
  0
LINE
  8
0
 10
-92.1474
 20
7550.89
 11
-91.9645
 21
7551.02
  0
LINE
  8
0
 10
-91.9645
 20
7551.02
 11
-91.7664
 21
7551.13
  0
LINE
  8
0
 10
-91.7664
 20
7551.13
 11
-91.5562
 21
7551.21
  0
LINE
  8
0
 10
-91.5562
 20
7551.21
 11
-91.3373
 21
7551.27
  0
LINE
  8
0
 10
-91.3373
 20
7551.27
 11
-91.113
 21
7551.3
  0
LINE
  8
0
 10
-91.113
 20
7551.3
 11
-90.887
 21
7551.3
  0
LINE
  8
0
 10
-90.887
 20
7551.3
 11
-90.6627
 21
7551.27
  0
LINE
  8
0
 10
-90.6627
 20
7551.27
 11
-90.4438
 21
7551.21
  0
LINE
  8
0
 10
-90.4438
 20
7551.21
 11
-90.2336
 21
7551.13
  0
LINE
  8
0
 10
-90.2336
 20
7551.13
 11
-90.0355
 21
7551.02
  0
LINE
  8
0
 10
-90.0355
 20
7551.02
 11
-89.8526
 21
7550.89
  0
LINE
  8
0
 10
-89.8526
 20
7550.89
 11
-89.6879
 21
7550.73
  0
LINE
  8
0
 10
-89.6879
 20
7550.73
 11
-89.5438
 21
7550.56
  0
LINE
  8
0
 10
-89.5438
 20
7550.56
 11
-89.4226
 21
7550.37
  0
LINE
  8
0
 10
-89.4226
 20
7550.37
 11
-89.3264
 21
7550.16
  0
LINE
  8
0
 10
-89.3264
 20
7550.16
 11
-89.2565
 21
7549.95
  0
LINE
  8
0
 10
-89.2565
 20
7549.95
 11
-89.2142
 21
7549.73
  0
LINE
  8
0
 10
-89.2142
 20
7549.73
 11
-89.2
 21
7549.5
  0
LINE
  8
0
 10
-89.2
 20
7549.5
 11
-89.2142
 21
7549.27
  0
LINE
  8
0
 10
-89.2142
 20
7549.27
 11
-89.2565
 21
7549.05
  0
LINE
  8
0
 10
-89.2565
 20
7549.05
 11
-89.3264
 21
7548.84
  0
LINE
  8
0
 10
-89.3264
 20
7548.84
 11
-89.4226
 21
7548.63
  0
LINE
  8
0
 10
-89.4226
 20
7548.63
 11
-89.5438
 21
7548.44
  0
LINE
  8
0
 10
-89.5438
 20
7548.44
 11
-89.6879
 21
7548.27
  0
LINE
  8
0
 10
-89.6879
 20
7548.27
 11
-89.8526
 21
7548.11
  0
LINE
  8
0
 10
-89.8526
 20
7548.11
 11
-90.0355
 21
7547.98
  0
LINE
  8
0
 10
-90.0355
 20
7547.98
 11
-90.2336
 21
7547.87
  0
LINE
  8
0
 10
-90.2336
 20
7547.87
 11
-90.4438
 21
7547.79
  0
LINE
  8
0
 10
-90.4438
 20
7547.79
 11
-90.6627
 21
7547.73
  0
LINE
  8
0
 10
-90.6627
 20
7547.73
 11
-90.887
 21
7547.7
  0
LINE
  8
0
 10
-90.887
 20
7547.7
 11
-91.113
 21
7547.7
  0
LINE
  8
0
 10
90.887
 20
7547.7
 11
90.6627
 21
7547.73
  0
LINE
  8
0
 10
90.6627
 20
7547.73
 11
90.4438
 21
7547.79
  0
LINE
  8
0
 10
90.4438
 20
7547.79
 11
90.2336
 21
7547.87
  0
LINE
  8
0
 10
90.2336
 20
7547.87
 11
90.0355
 21
7547.98
  0
LINE
  8
0
 10
90.0355
 20
7547.98
 11
89.8526
 21
7548.11
  0
LINE
  8
0
 10
89.8526
 20
7548.11
 11
89.6879
 21
7548.27
  0
LINE
  8
0
 10
89.6879
 20
7548.27
 11
89.5438
 21
7548.44
  0
LINE
  8
0
 10
89.5438
 20
7548.44
 11
89.4226
 21
7548.63
  0
LINE
  8
0
 10
89.4226
 20
7548.63
 11
89.3264
 21
7548.84
  0
LINE
  8
0
 10
89.3264
 20
7548.84
 11
89.2565
 21
7549.05
  0
LINE
  8
0
 10
89.2565
 20
7549.05
 11
89.2142
 21
7549.27
  0
LINE
  8
0
 10
89.2142
 20
7549.27
 11
89.2
 21
7549.5
  0
LINE
  8
0
 10
89.2
 20
7549.5
 11
89.2142
 21
7549.73
  0
LINE
  8
0
 10
89.2142
 20
7549.73
 11
89.2565
 21
7549.95
  0
LINE
  8
0
 10
89.2565
 20
7549.95
 11
89.3264
 21
7550.16
  0
LINE
  8
0
 10
89.3264
 20
7550.16
 11
89.4226
 21
7550.37
  0
LINE
  8
0
 10
89.4226
 20
7550.37
 11
89.5438
 21
7550.56
  0
LINE
  8
0
 10
89.5438
 20
7550.56
 11
89.6879
 21
7550.73
  0
LINE
  8
0
 10
89.6879
 20
7550.73
 11
89.8526
 21
7550.89
  0
LINE
  8
0
 10
89.8526
 20
7550.89
 11
90.0355
 21
7551.02
  0
LINE
  8
0
 10
90.0355
 20
7551.02
 11
90.2336
 21
7551.13
  0
LINE
  8
0
 10
90.2336
 20
7551.13
 11
90.4438
 21
7551.21
  0
LINE
  8
0
 10
90.4438
 20
7551.21
 11
90.6627
 21
7551.27
  0
LINE
  8
0
 10
90.6627
 20
7551.27
 11
90.887
 21
7551.3
  0
LINE
  8
0
 10
90.887
 20
7551.3
 11
91.113
 21
7551.3
  0
LINE
  8
0
 10
91.113
 20
7551.3
 11
91.3373
 21
7551.27
  0
LINE
  8
0
 10
91.3373
 20
7551.27
 11
91.5562
 21
7551.21
  0
LINE
  8
0
 10
91.5562
 20
7551.21
 11
91.7664
 21
7551.13
  0
LINE
  8
0
 10
91.7664
 20
7551.13
 11
91.9645
 21
7551.02
  0
LINE
  8
0
 10
91.9645
 20
7551.02
 11
92.1474
 21
7550.89
  0
LINE
  8
0
 10
92.1474
 20
7550.89
 11
92.3121
 21
7550.73
  0
LINE
  8
0
 10
92.3121
 20
7550.73
 11
92.4562
 21
7550.56
  0
LINE
  8
0
 10
92.4562
 20
7550.56
 11
92.5773
 21
7550.37
  0
LINE
  8
0
 10
92.5773
 20
7550.37
 11
92.6736
 21
7550.16
  0
LINE
  8
0
 10
92.6736
 20
7550.16
 11
92.7434
 21
7549.95
  0
LINE
  8
0
 10
92.7434
 20
7549.95
 11
92.7858
 21
7549.73
  0
LINE
  8
0
 10
92.7858
 20
7549.73
 11
92.8
 21
7549.5
  0
LINE
  8
0
 10
92.8
 20
7549.5
 11
92.7858
 21
7549.27
  0
LINE
  8
0
 10
92.7858
 20
7549.27
 11
92.7434
 21
7549.05
  0
LINE
  8
0
 10
92.7434
 20
7549.05
 11
92.6736
 21
7548.84
  0
LINE
  8
0
 10
92.6736
 20
7548.84
 11
92.5773
 21
7548.63
  0
LINE
  8
0
 10
92.5773
 20
7548.63
 11
92.4562
 21
7548.44
  0
LINE
  8
0
 10
92.4562
 20
7548.44
 11
92.3121
 21
7548.27
  0
LINE
  8
0
 10
92.3121
 20
7548.27
 11
92.1474
 21
7548.11
  0
LINE
  8
0
 10
92.1474
 20
7548.11
 11
91.9645
 21
7547.98
  0
LINE
  8
0
 10
91.9645
 20
7547.98
 11
91.7664
 21
7547.87
  0
LINE
  8
0
 10
91.7664
 20
7547.87
 11
91.5562
 21
7547.79
  0
LINE
  8
0
 10
91.5562
 20
7547.79
 11
91.3373
 21
7547.73
  0
LINE
  8
0
 10
91.3373
 20
7547.73
 11
91.113
 21
7547.7
  0
LINE
  8
0
 10
91.113
 20
7547.7
 11
90.887
 21
7547.7
  0
ENDSEC
  0
SECTION
  2
OBJECTS
  0
DICTIONARY
  0
ENDSEC
  0
EOF
