  0
SECTION
  2
BLOCKS
  0
ENDSEC
  0
SECTION
  2
ENTITIES
  0
LINE
  8
0
 10
95
 20
15336
 11
89.5
 21
15336
  0
LINE
  8
0
 10
89.5
 20
15336
 11
89.5
 21
15221.5
  0
LINE
  8
0
 10
89.5
 20
15221.5
 11
89.4606
 21
15220.9
  0
LINE
  8
0
 10
89.4606
 20
15220.9
 11
89.3429
 21
15220.3
  0
LINE
  8
0
 10
89.3429
 20
15220.3
 11
89.1489
 21
15219.7
  0
LINE
  8
0
 10
89.1489
 20
15219.7
 11
88.8815
 21
15219.1
  0
LINE
  8
0
 10
88.8815
 20
15219.1
 11
88.5451
 21
15218.6
  0
LINE
  8
0
 10
88.5451
 20
15218.6
 11
88.1448
 21
15218.1
  0
LINE
  8
0
 10
88.1448
 20
15218.1
 11
87.6871
 21
15217.6
  0
LINE
  8
0
 10
87.6871
 20
15217.6
 11
87.1791
 21
15217.3
  0
LINE
  8
0
 10
87.1791
 20
15217.3
 11
86.6289
 21
15217
  0
LINE
  8
0
 10
86.6289
 20
15217
 11
86.0451
 21
15216.7
  0
LINE
  8
0
 10
86.0451
 20
15216.7
 11
85.4369
 21
15216.6
  0
LINE
  8
0
 10
85.4369
 20
15216.6
 11
84.8139
 21
15216.5
  0
LINE
  8
0
 10
84.8139
 20
15216.5
 11
-84.8139
 21
15216.5
  0
LINE
  8
0
 10
-84.8139
 20
15216.5
 11
-85.4369
 21
15216.6
  0
LINE
  8
0
 10
-85.4369
 20
15216.6
 11
-86.0451
 21
15216.7
  0
LINE
  8
0
 10
-86.0451
 20
15216.7
 11
-86.6289
 21
15217
  0
LINE
  8
0
 10
-86.6289
 20
15217
 11
-87.1791
 21
15217.3
  0
LINE
  8
0
 10
-87.1791
 20
15217.3
 11
-87.6871
 21
15217.6
  0
LINE
  8
0
 10
-87.6871
 20
15217.6
 11
-88.1448
 21
15218.1
  0
LINE
  8
0
 10
-88.1448
 20
15218.1
 11
-88.5451
 21
15218.6
  0
LINE
  8
0
 10
-88.5451
 20
15218.6
 11
-88.8815
 21
15219.1
  0
LINE
  8
0
 10
-88.8815
 20
15219.1
 11
-89.1489
 21
15219.7
  0
LINE
  8
0
 10
-89.1489
 20
15219.7
 11
-89.3429
 21
15220.3
  0
LINE
  8
0
 10
-89.3429
 20
15220.3
 11
-89.4606
 21
15220.9
  0
LINE
  8
0
 10
-89.4606
 20
15220.9
 11
-89.5
 21
15221.5
  0
LINE
  8
0
 10
-89.5
 20
15221.5
 11
-89.5
 21
15336
  0
LINE
  8
0
 10
-89.5
 20
15336
 11
-95
 21
15336
  0
LINE
  8
0
 10
-95
 20
15336
 11
-95
 21
15213.5
  0
LINE
  8
0
 10
-95
 20
15213.5
 11
95
 21
15213.5
  0
LINE
  8
0
 10
95
 20
15213.5
 11
95
 21
15336
  0
LINE
  8
0
 10
-91.113
 20
15215.7
 11
-91.3373
 21
15215.7
  0
LINE
  8
0
 10
-91.3373
 20
15215.7
 11
-91.5562
 21
15215.8
  0
LINE
  8
0
 10
-91.5562
 20
15215.8
 11
-91.7664
 21
15215.9
  0
LINE
  8
0
 10
-91.7664
 20
15215.9
 11
-91.9645
 21
15216
  0
LINE
  8
0
 10
-91.9645
 20
15216
 11
-92.1474
 21
15216.1
  0
LINE
  8
0
 10
-92.1474
 20
15216.1
 11
-92.3121
 21
15216.3
  0
LINE
  8
0
 10
-92.3121
 20
15216.3
 11
-92.4562
 21
15216.4
  0
LINE
  8
0
 10
-92.4562
 20
15216.4
 11
-92.5773
 21
15216.6
  0
LINE
  8
0
 10
-92.5773
 20
15216.6
 11
-92.6736
 21
15216.8
  0
LINE
  8
0
 10
-92.6736
 20
15216.8
 11
-92.7434
 21
15217.1
  0
LINE
  8
0
 10
-92.7434
 20
15217.1
 11
-92.7858
 21
15217.3
  0
LINE
  8
0
 10
-92.7858
 20
15217.3
 11
-92.8
 21
15217.5
  0
LINE
  8
0
 10
-92.8
 20
15217.5
 11
-92.7858
 21
15217.7
  0
LINE
  8
0
 10
-92.7858
 20
15217.7
 11
-92.7434
 21
15217.9
  0
LINE
  8
0
 10
-92.7434
 20
15217.9
 11
-92.6736
 21
15218.2
  0
LINE
  8
0
 10
-92.6736
 20
15218.2
 11
-92.5773
 21
15218.4
  0
LINE
  8
0
 10
-92.5773
 20
15218.4
 11
-92.4562
 21
15218.6
  0
LINE
  8
0
 10
-92.4562
 20
15218.6
 11
-92.3121
 21
15218.7
  0
LINE
  8
0
 10
-92.3121
 20
15218.7
 11
-92.1474
 21
15218.9
  0
LINE
  8
0
 10
-92.1474
 20
15218.9
 11
-91.9645
 21
15219
  0
LINE
  8
0
 10
-91.9645
 20
15219
 11
-91.7664
 21
15219.1
  0
LINE
  8
0
 10
-91.7664
 20
15219.1
 11
-91.5562
 21
15219.2
  0
LINE
  8
0
 10
-91.5562
 20
15219.2
 11
-91.3373
 21
15219.3
  0
LINE
  8
0
 10
-91.3373
 20
15219.3
 11
-91.113
 21
15219.3
  0
LINE
  8
0
 10
-91.113
 20
15219.3
 11
-90.887
 21
15219.3
  0
LINE
  8
0
 10
-90.887
 20
15219.3
 11
-90.6627
 21
15219.3
  0
LINE
  8
0
 10
-90.6627
 20
15219.3
 11
-90.4438
 21
15219.2
  0
LINE
  8
0
 10
-90.4438
 20
15219.2
 11
-90.2336
 21
15219.1
  0
LINE
  8
0
 10
-90.2336
 20
15219.1
 11
-90.0355
 21
15219
  0
LINE
  8
0
 10
-90.0355
 20
15219
 11
-89.8526
 21
15218.9
  0
LINE
  8
0
 10
-89.8526
 20
15218.9
 11
-89.6879
 21
15218.7
  0
LINE
  8
0
 10
-89.6879
 20
15218.7
 11
-89.5438
 21
15218.6
  0
LINE
  8
0
 10
-89.5438
 20
15218.6
 11
-89.4226
 21
15218.4
  0
LINE
  8
0
 10
-89.4226
 20
15218.4
 11
-89.3264
 21
15218.2
  0
LINE
  8
0
 10
-89.3264
 20
15218.2
 11
-89.2565
 21
15217.9
  0
LINE
  8
0
 10
-89.2565
 20
15217.9
 11
-89.2142
 21
15217.7
  0
LINE
  8
0
 10
-89.2142
 20
15217.7
 11
-89.2
 21
15217.5
  0
LINE
  8
0
 10
-89.2
 20
15217.5
 11
-89.2142
 21
15217.3
  0
LINE
  8
0
 10
-89.2142
 20
15217.3
 11
-89.2565
 21
15217.1
  0
LINE
  8
0
 10
-89.2565
 20
15217.1
 11
-89.3264
 21
15216.8
  0
LINE
  8
0
 10
-89.3264
 20
15216.8
 11
-89.4226
 21
15216.6
  0
LINE
  8
0
 10
-89.4226
 20
15216.6
 11
-89.5438
 21
15216.4
  0
LINE
  8
0
 10
-89.5438
 20
15216.4
 11
-89.6879
 21
15216.3
  0
LINE
  8
0
 10
-89.6879
 20
15216.3
 11
-89.8526
 21
15216.1
  0
LINE
  8
0
 10
-89.8526
 20
15216.1
 11
-90.0355
 21
15216
  0
LINE
  8
0
 10
-90.0355
 20
15216
 11
-90.2336
 21
15215.9
  0
LINE
  8
0
 10
-90.2336
 20
15215.9
 11
-90.4438
 21
15215.8
  0
LINE
  8
0
 10
-90.4438
 20
15215.8
 11
-90.6627
 21
15215.7
  0
LINE
  8
0
 10
-90.6627
 20
15215.7
 11
-90.887
 21
15215.7
  0
LINE
  8
0
 10
-90.887
 20
15215.7
 11
-91.113
 21
15215.7
  0
LINE
  8
0
 10
90.887
 20
15215.7
 11
90.6627
 21
15215.7
  0
LINE
  8
0
 10
90.6627
 20
15215.7
 11
90.4438
 21
15215.8
  0
LINE
  8
0
 10
90.4438
 20
15215.8
 11
90.2336
 21
15215.9
  0
LINE
  8
0
 10
90.2336
 20
15215.9
 11
90.0355
 21
15216
  0
LINE
  8
0
 10
90.0355
 20
15216
 11
89.8526
 21
15216.1
  0
LINE
  8
0
 10
89.8526
 20
15216.1
 11
89.6879
 21
15216.3
  0
LINE
  8
0
 10
89.6879
 20
15216.3
 11
89.5438
 21
15216.4
  0
LINE
  8
0
 10
89.5438
 20
15216.4
 11
89.4226
 21
15216.6
  0
LINE
  8
0
 10
89.4226
 20
15216.6
 11
89.3264
 21
15216.8
  0
LINE
  8
0
 10
89.3264
 20
15216.8
 11
89.2565
 21
15217.1
  0
LINE
  8
0
 10
89.2565
 20
15217.1
 11
89.2142
 21
15217.3
  0
LINE
  8
0
 10
89.2142
 20
15217.3
 11
89.2
 21
15217.5
  0
LINE
  8
0
 10
89.2
 20
15217.5
 11
89.2142
 21
15217.7
  0
LINE
  8
0
 10
89.2142
 20
15217.7
 11
89.2565
 21
15217.9
  0
LINE
  8
0
 10
89.2565
 20
15217.9
 11
89.3264
 21
15218.2
  0
LINE
  8
0
 10
89.3264
 20
15218.2
 11
89.4226
 21
15218.4
  0
LINE
  8
0
 10
89.4226
 20
15218.4
 11
89.5438
 21
15218.6
  0
LINE
  8
0
 10
89.5438
 20
15218.6
 11
89.6879
 21
15218.7
  0
LINE
  8
0
 10
89.6879
 20
15218.7
 11
89.8526
 21
15218.9
  0
LINE
  8
0
 10
89.8526
 20
15218.9
 11
90.0355
 21
15219
  0
LINE
  8
0
 10
90.0355
 20
15219
 11
90.2336
 21
15219.1
  0
LINE
  8
0
 10
90.2336
 20
15219.1
 11
90.4438
 21
15219.2
  0
LINE
  8
0
 10
90.4438
 20
15219.2
 11
90.6627
 21
15219.3
  0
LINE
  8
0
 10
90.6627
 20
15219.3
 11
90.887
 21
15219.3
  0
LINE
  8
0
 10
90.887
 20
15219.3
 11
91.113
 21
15219.3
  0
LINE
  8
0
 10
91.113
 20
15219.3
 11
91.3373
 21
15219.3
  0
LINE
  8
0
 10
91.3373
 20
15219.3
 11
91.5562
 21
15219.2
  0
LINE
  8
0
 10
91.5562
 20
15219.2
 11
91.7664
 21
15219.1
  0
LINE
  8
0
 10
91.7664
 20
15219.1
 11
91.9645
 21
15219
  0
LINE
  8
0
 10
91.9645
 20
15219
 11
92.1474
 21
15218.9
  0
LINE
  8
0
 10
92.1474
 20
15218.9
 11
92.3121
 21
15218.7
  0
LINE
  8
0
 10
92.3121
 20
15218.7
 11
92.4562
 21
15218.6
  0
LINE
  8
0
 10
92.4562
 20
15218.6
 11
92.5773
 21
15218.4
  0
LINE
  8
0
 10
92.5773
 20
15218.4
 11
92.6736
 21
15218.2
  0
LINE
  8
0
 10
92.6736
 20
15218.2
 11
92.7434
 21
15217.9
  0
LINE
  8
0
 10
92.7434
 20
15217.9
 11
92.7858
 21
15217.7
  0
LINE
  8
0
 10
92.7858
 20
15217.7
 11
92.8
 21
15217.5
  0
LINE
  8
0
 10
92.8
 20
15217.5
 11
92.7858
 21
15217.3
  0
LINE
  8
0
 10
92.7858
 20
15217.3
 11
92.7434
 21
15217.1
  0
LINE
  8
0
 10
92.7434
 20
15217.1
 11
92.6736
 21
15216.8
  0
LINE
  8
0
 10
92.6736
 20
15216.8
 11
92.5773
 21
15216.6
  0
LINE
  8
0
 10
92.5773
 20
15216.6
 11
92.4562
 21
15216.4
  0
LINE
  8
0
 10
92.4562
 20
15216.4
 11
92.3121
 21
15216.3
  0
LINE
  8
0
 10
92.3121
 20
15216.3
 11
92.1474
 21
15216.1
  0
LINE
  8
0
 10
92.1474
 20
15216.1
 11
91.9645
 21
15216
  0
LINE
  8
0
 10
91.9645
 20
15216
 11
91.7664
 21
15215.9
  0
LINE
  8
0
 10
91.7664
 20
15215.9
 11
91.5562
 21
15215.8
  0
LINE
  8
0
 10
91.5562
 20
15215.8
 11
91.3373
 21
15215.7
  0
LINE
  8
0
 10
91.3373
 20
15215.7
 11
91.113
 21
15215.7
  0
LINE
  8
0
 10
91.113
 20
15215.7
 11
90.887
 21
15215.7
  0
LINE
  8
0
 10
95
 20
11502
 11
89.5
 21
11502
  0
LINE
  8
0
 10
89.5
 20
11502
 11
89.5
 21
11387.5
  0
LINE
  8
0
 10
89.5
 20
11387.5
 11
89.4606
 21
11386.9
  0
LINE
  8
0
 10
89.4606
 20
11386.9
 11
89.3429
 21
11386.3
  0
LINE
  8
0
 10
89.3429
 20
11386.3
 11
89.1489
 21
11385.7
  0
LINE
  8
0
 10
89.1489
 20
11385.7
 11
88.8815
 21
11385.1
  0
LINE
  8
0
 10
88.8815
 20
11385.1
 11
88.5451
 21
11384.6
  0
LINE
  8
0
 10
88.5451
 20
11384.6
 11
88.1448
 21
11384.1
  0
LINE
  8
0
 10
88.1448
 20
11384.1
 11
87.6871
 21
11383.6
  0
LINE
  8
0
 10
87.6871
 20
11383.6
 11
87.1791
 21
11383.3
  0
LINE
  8
0
 10
87.1791
 20
11383.3
 11
86.6289
 21
11383
  0
LINE
  8
0
 10
86.6289
 20
11383
 11
86.0451
 21
11382.7
  0
LINE
  8
0
 10
86.0451
 20
11382.7
 11
85.4369
 21
11382.6
  0
LINE
  8
0
 10
85.4369
 20
11382.6
 11
84.8139
 21
11382.5
  0
LINE
  8
0
 10
84.8139
 20
11382.5
 11
-84.8139
 21
11382.5
  0
LINE
  8
0
 10
-84.8139
 20
11382.5
 11
-85.4369
 21
11382.6
  0
LINE
  8
0
 10
-85.4369
 20
11382.6
 11
-86.0451
 21
11382.7
  0
LINE
  8
0
 10
-86.0451
 20
11382.7
 11
-86.6289
 21
11383
  0
LINE
  8
0
 10
-86.6289
 20
11383
 11
-87.1791
 21
11383.3
  0
LINE
  8
0
 10
-87.1791
 20
11383.3
 11
-87.6871
 21
11383.6
  0
LINE
  8
0
 10
-87.6871
 20
11383.6
 11
-88.1448
 21
11384.1
  0
LINE
  8
0
 10
-88.1448
 20
11384.1
 11
-88.5451
 21
11384.6
  0
LINE
  8
0
 10
-88.5451
 20
11384.6
 11
-88.8815
 21
11385.1
  0
LINE
  8
0
 10
-88.8815
 20
11385.1
 11
-89.1489
 21
11385.7
  0
LINE
  8
0
 10
-89.1489
 20
11385.7
 11
-89.3429
 21
11386.3
  0
LINE
  8
0
 10
-89.3429
 20
11386.3
 11
-89.4606
 21
11386.9
  0
LINE
  8
0
 10
-89.4606
 20
11386.9
 11
-89.5
 21
11387.5
  0
LINE
  8
0
 10
-89.5
 20
11387.5
 11
-89.5
 21
11502
  0
LINE
  8
0
 10
-89.5
 20
11502
 11
-95
 21
11502
  0
LINE
  8
0
 10
-95
 20
11502
 11
-95
 21
11379.5
  0
LINE
  8
0
 10
-95
 20
11379.5
 11
95
 21
11379.5
  0
LINE
  8
0
 10
95
 20
11379.5
 11
95
 21
11502
  0
LINE
  8
0
 10
-91.113
 20
11381.7
 11
-91.3373
 21
11381.7
  0
LINE
  8
0
 10
-91.3373
 20
11381.7
 11
-91.5562
 21
11381.8
  0
LINE
  8
0
 10
-91.5562
 20
11381.8
 11
-91.7664
 21
11381.9
  0
LINE
  8
0
 10
-91.7664
 20
11381.9
 11
-91.9645
 21
11382
  0
LINE
  8
0
 10
-91.9645
 20
11382
 11
-92.1474
 21
11382.1
  0
LINE
  8
0
 10
-92.1474
 20
11382.1
 11
-92.3121
 21
11382.3
  0
LINE
  8
0
 10
-92.3121
 20
11382.3
 11
-92.4562
 21
11382.4
  0
LINE
  8
0
 10
-92.4562
 20
11382.4
 11
-92.5773
 21
11382.6
  0
LINE
  8
0
 10
-92.5773
 20
11382.6
 11
-92.6736
 21
11382.8
  0
LINE
  8
0
 10
-92.6736
 20
11382.8
 11
-92.7434
 21
11383.1
  0
LINE
  8
0
 10
-92.7434
 20
11383.1
 11
-92.7858
 21
11383.3
  0
LINE
  8
0
 10
-92.7858
 20
11383.3
 11
-92.8
 21
11383.5
  0
LINE
  8
0
 10
-92.8
 20
11383.5
 11
-92.7858
 21
11383.7
  0
LINE
  8
0
 10
-92.7858
 20
11383.7
 11
-92.7434
 21
11383.9
  0
LINE
  8
0
 10
-92.7434
 20
11383.9
 11
-92.6736
 21
11384.2
  0
LINE
  8
0
 10
-92.6736
 20
11384.2
 11
-92.5773
 21
11384.4
  0
LINE
  8
0
 10
-92.5773
 20
11384.4
 11
-92.4562
 21
11384.6
  0
LINE
  8
0
 10
-92.4562
 20
11384.6
 11
-92.3121
 21
11384.7
  0
LINE
  8
0
 10
-92.3121
 20
11384.7
 11
-92.1474
 21
11384.9
  0
LINE
  8
0
 10
-92.1474
 20
11384.9
 11
-91.9645
 21
11385
  0
LINE
  8
0
 10
-91.9645
 20
11385
 11
-91.7664
 21
11385.1
  0
LINE
  8
0
 10
-91.7664
 20
11385.1
 11
-91.5562
 21
11385.2
  0
LINE
  8
0
 10
-91.5562
 20
11385.2
 11
-91.3373
 21
11385.3
  0
LINE
  8
0
 10
-91.3373
 20
11385.3
 11
-91.113
 21
11385.3
  0
LINE
  8
0
 10
-91.113
 20
11385.3
 11
-90.887
 21
11385.3
  0
LINE
  8
0
 10
-90.887
 20
11385.3
 11
-90.6627
 21
11385.3
  0
LINE
  8
0
 10
-90.6627
 20
11385.3
 11
-90.4438
 21
11385.2
  0
LINE
  8
0
 10
-90.4438
 20
11385.2
 11
-90.2336
 21
11385.1
  0
LINE
  8
0
 10
-90.2336
 20
11385.1
 11
-90.0355
 21
11385
  0
LINE
  8
0
 10
-90.0355
 20
11385
 11
-89.8526
 21
11384.9
  0
LINE
  8
0
 10
-89.8526
 20
11384.9
 11
-89.6879
 21
11384.7
  0
LINE
  8
0
 10
-89.6879
 20
11384.7
 11
-89.5438
 21
11384.6
  0
LINE
  8
0
 10
-89.5438
 20
11384.6
 11
-89.4226
 21
11384.4
  0
LINE
  8
0
 10
-89.4226
 20
11384.4
 11
-89.3264
 21
11384.2
  0
LINE
  8
0
 10
-89.3264
 20
11384.2
 11
-89.2565
 21
11383.9
  0
LINE
  8
0
 10
-89.2565
 20
11383.9
 11
-89.2142
 21
11383.7
  0
LINE
  8
0
 10
-89.2142
 20
11383.7
 11
-89.2
 21
11383.5
  0
LINE
  8
0
 10
-89.2
 20
11383.5
 11
-89.2142
 21
11383.3
  0
LINE
  8
0
 10
-89.2142
 20
11383.3
 11
-89.2565
 21
11383.1
  0
LINE
  8
0
 10
-89.2565
 20
11383.1
 11
-89.3264
 21
11382.8
  0
LINE
  8
0
 10
-89.3264
 20
11382.8
 11
-89.4226
 21
11382.6
  0
LINE
  8
0
 10
-89.4226
 20
11382.6
 11
-89.5438
 21
11382.4
  0
LINE
  8
0
 10
-89.5438
 20
11382.4
 11
-89.6879
 21
11382.3
  0
LINE
  8
0
 10
-89.6879
 20
11382.3
 11
-89.8526
 21
11382.1
  0
LINE
  8
0
 10
-89.8526
 20
11382.1
 11
-90.0355
 21
11382
  0
LINE
  8
0
 10
-90.0355
 20
11382
 11
-90.2336
 21
11381.9
  0
LINE
  8
0
 10
-90.2336
 20
11381.9
 11
-90.4438
 21
11381.8
  0
LINE
  8
0
 10
-90.4438
 20
11381.8
 11
-90.6627
 21
11381.7
  0
LINE
  8
0
 10
-90.6627
 20
11381.7
 11
-90.887
 21
11381.7
  0
LINE
  8
0
 10
-90.887
 20
11381.7
 11
-91.113
 21
11381.7
  0
LINE
  8
0
 10
90.887
 20
11381.7
 11
90.6627
 21
11381.7
  0
LINE
  8
0
 10
90.6627
 20
11381.7
 11
90.4438
 21
11381.8
  0
LINE
  8
0
 10
90.4438
 20
11381.8
 11
90.2336
 21
11381.9
  0
LINE
  8
0
 10
90.2336
 20
11381.9
 11
90.0355
 21
11382
  0
LINE
  8
0
 10
90.0355
 20
11382
 11
89.8526
 21
11382.1
  0
LINE
  8
0
 10
89.8526
 20
11382.1
 11
89.6879
 21
11382.3
  0
LINE
  8
0
 10
89.6879
 20
11382.3
 11
89.5438
 21
11382.4
  0
LINE
  8
0
 10
89.5438
 20
11382.4
 11
89.4226
 21
11382.6
  0
LINE
  8
0
 10
89.4226
 20
11382.6
 11
89.3264
 21
11382.8
  0
LINE
  8
0
 10
89.3264
 20
11382.8
 11
89.2565
 21
11383.1
  0
LINE
  8
0
 10
89.2565
 20
11383.1
 11
89.2142
 21
11383.3
  0
LINE
  8
0
 10
89.2142
 20
11383.3
 11
89.2
 21
11383.5
  0
LINE
  8
0
 10
89.2
 20
11383.5
 11
89.2142
 21
11383.7
  0
LINE
  8
0
 10
89.2142
 20
11383.7
 11
89.2565
 21
11383.9
  0
LINE
  8
0
 10
89.2565
 20
11383.9
 11
89.3264
 21
11384.2
  0
LINE
  8
0
 10
89.3264
 20
11384.2
 11
89.4226
 21
11384.4
  0
LINE
  8
0
 10
89.4226
 20
11384.4
 11
89.5438
 21
11384.6
  0
LINE
  8
0
 10
89.5438
 20
11384.6
 11
89.6879
 21
11384.7
  0
LINE
  8
0
 10
89.6879
 20
11384.7
 11
89.8526
 21
11384.9
  0
LINE
  8
0
 10
89.8526
 20
11384.9
 11
90.0355
 21
11385
  0
LINE
  8
0
 10
90.0355
 20
11385
 11
90.2336
 21
11385.1
  0
LINE
  8
0
 10
90.2336
 20
11385.1
 11
90.4438
 21
11385.2
  0
LINE
  8
0
 10
90.4438
 20
11385.2
 11
90.6627
 21
11385.3
  0
LINE
  8
0
 10
90.6627
 20
11385.3
 11
90.887
 21
11385.3
  0
LINE
  8
0
 10
90.887
 20
11385.3
 11
91.113
 21
11385.3
  0
LINE
  8
0
 10
91.113
 20
11385.3
 11
91.3373
 21
11385.3
  0
LINE
  8
0
 10
91.3373
 20
11385.3
 11
91.5562
 21
11385.2
  0
LINE
  8
0
 10
91.5562
 20
11385.2
 11
91.7664
 21
11385.1
  0
LINE
  8
0
 10
91.7664
 20
11385.1
 11
91.9645
 21
11385
  0
LINE
  8
0
 10
91.9645
 20
11385
 11
92.1474
 21
11384.9
  0
LINE
  8
0
 10
92.1474
 20
11384.9
 11
92.3121
 21
11384.7
  0
LINE
  8
0
 10
92.3121
 20
11384.7
 11
92.4562
 21
11384.6
  0
LINE
  8
0
 10
92.4562
 20
11384.6
 11
92.5773
 21
11384.4
  0
LINE
  8
0
 10
92.5773
 20
11384.4
 11
92.6736
 21
11384.2
  0
LINE
  8
0
 10
92.6736
 20
11384.2
 11
92.7434
 21
11383.9
  0
LINE
  8
0
 10
92.7434
 20
11383.9
 11
92.7858
 21
11383.7
  0
LINE
  8
0
 10
92.7858
 20
11383.7
 11
92.8
 21
11383.5
  0
LINE
  8
0
 10
92.8
 20
11383.5
 11
92.7858
 21
11383.3
  0
LINE
  8
0
 10
92.7858
 20
11383.3
 11
92.7434
 21
11383.1
  0
LINE
  8
0
 10
92.7434
 20
11383.1
 11
92.6736
 21
11382.8
  0
LINE
  8
0
 10
92.6736
 20
11382.8
 11
92.5773
 21
11382.6
  0
LINE
  8
0
 10
92.5773
 20
11382.6
 11
92.4562
 21
11382.4
  0
LINE
  8
0
 10
92.4562
 20
11382.4
 11
92.3121
 21
11382.3
  0
LINE
  8
0
 10
92.3121
 20
11382.3
 11
92.1474
 21
11382.1
  0
LINE
  8
0
 10
92.1474
 20
11382.1
 11
91.9645
 21
11382
  0
LINE
  8
0
 10
91.9645
 20
11382
 11
91.7664
 21
11381.9
  0
LINE
  8
0
 10
91.7664
 20
11381.9
 11
91.5562
 21
11381.8
  0
LINE
  8
0
 10
91.5562
 20
11381.8
 11
91.3373
 21
11381.7
  0
LINE
  8
0
 10
91.3373
 20
11381.7
 11
91.113
 21
11381.7
  0
LINE
  8
0
 10
91.113
 20
11381.7
 11
90.887
 21
11381.7
  0
LINE
  8
0
 10
95
 20
7668
 11
89.5
 21
7668
  0
LINE
  8
0
 10
89.5
 20
7668
 11
89.5
 21
7553.5
  0
LINE
  8
0
 10
89.5
 20
7553.5
 11
89.4606
 21
7552.87
  0
LINE
  8
0
 10
89.4606
 20
7552.87
 11
89.3429
 21
7552.26
  0
LINE
  8
0
 10
89.3429
 20
7552.26
 11
89.1489
 21
7551.66
  0
LINE
  8
0
 10
89.1489
 20
7551.66
 11
88.8815
 21
7551.09
  0
LINE
  8
0
 10
88.8815
 20
7551.09
 11
88.5451
 21
7550.56
  0
LINE
  8
0
 10
88.5451
 20
7550.56
 11
88.1448
 21
7550.08
  0
LINE
  8
0
 10
88.1448
 20
7550.08
 11
87.6871
 21
7549.65
  0
LINE
  8
0
 10
87.6871
 20
7549.65
 11
87.1791
 21
7549.28
  0
LINE
  8
0
 10
87.1791
 20
7549.28
 11
86.6289
 21
7548.98
  0
LINE
  8
0
 10
86.6289
 20
7548.98
 11
86.0451
 21
7548.74
  0
LINE
  8
0
 10
86.0451
 20
7548.74
 11
85.4369
 21
7548.59
  0
LINE
  8
0
 10
85.4369
 20
7548.59
 11
84.8139
 21
7548.51
  0
LINE
  8
0
 10
84.8139
 20
7548.51
 11
-84.8139
 21
7548.51
  0
LINE
  8
0
 10
-84.8139
 20
7548.51
 11
-85.4369
 21
7548.59
  0
LINE
  8
0
 10
-85.4369
 20
7548.59
 11
-86.0451
 21
7548.74
  0
LINE
  8
0
 10
-86.0451
 20
7548.74
 11
-86.6289
 21
7548.98
  0
LINE
  8
0
 10
-86.6289
 20
7548.98
 11
-87.1791
 21
7549.28
  0
LINE
  8
0
 10
-87.1791
 20
7549.28
 11
-87.6871
 21
7549.65
  0
LINE
  8
0
 10
-87.6871
 20
7549.65
 11
-88.1448
 21
7550.08
  0
LINE
  8
0
 10
-88.1448
 20
7550.08
 11
-88.5451
 21
7550.56
  0
LINE
  8
0
 10
-88.5451
 20
7550.56
 11
-88.8815
 21
7551.09
  0
LINE
  8
0
 10
-88.8815
 20
7551.09
 11
-89.1489
 21
7551.66
  0
LINE
  8
0
 10
-89.1489
 20
7551.66
 11
-89.3429
 21
7552.26
  0
LINE
  8
0
 10
-89.3429
 20
7552.26
 11
-89.4606
 21
7552.87
  0
LINE
  8
0
 10
-89.4606
 20
7552.87
 11
-89.5
 21
7553.5
  0
LINE
  8
0
 10
-89.5
 20
7553.5
 11
-89.5
 21
7668
  0
LINE
  8
0
 10
-89.5
 20
7668
 11
-95
 21
7668
  0
LINE
  8
0
 10
-95
 20
7668
 11
-95
 21
7545.5
  0
LINE
  8
0
 10
-95
 20
7545.5
 11
95
 21
7545.5
  0
LINE
  8
0
 10
95
 20
7545.5
 11
95
 21
7668
  0
LINE
  8
0
 10
90.887
 20
7547.7
 11
90.6627
 21
7547.73
  0
LINE
  8
0
 10
90.6627
 20
7547.73
 11
90.4438
 21
7547.79
  0
LINE
  8
0
 10
90.4438
 20
7547.79
 11
90.2336
 21
7547.87
  0
LINE
  8
0
 10
90.2336
 20
7547.87
 11
90.0355
 21
7547.98
  0
LINE
  8
0
 10
90.0355
 20
7547.98
 11
89.8526
 21
7548.11
  0
LINE
  8
0
 10
89.8526
 20
7548.11
 11
89.6879
 21
7548.27
  0
LINE
  8
0
 10
89.6879
 20
7548.27
 11
89.5438
 21
7548.44
  0
LINE
  8
0
 10
89.5438
 20
7548.44
 11
89.4226
 21
7548.63
  0
LINE
  8
0
 10
89.4226
 20
7548.63
 11
89.3264
 21
7548.84
  0
LINE
  8
0
 10
89.3264
 20
7548.84
 11
89.2565
 21
7549.05
  0
LINE
  8
0
 10
89.2565
 20
7549.05
 11
89.2142
 21
7549.27
  0
LINE
  8
0
 10
89.2142
 20
7549.27
 11
89.2
 21
7549.5
  0
LINE
  8
0
 10
89.2
 20
7549.5
 11
89.2142
 21
7549.73
  0
LINE
  8
0
 10
89.2142
 20
7549.73
 11
89.2565
 21
7549.95
  0
LINE
  8
0
 10
89.2565
 20
7549.95
 11
89.3264
 21
7550.16
  0
LINE
  8
0
 10
89.3264
 20
7550.16
 11
89.4226
 21
7550.37
  0
LINE
  8
0
 10
89.4226
 20
7550.37
 11
89.5438
 21
7550.56
  0
LINE
  8
0
 10
89.5438
 20
7550.56
 11
89.6879
 21
7550.73
  0
LINE
  8
0
 10
89.6879
 20
7550.73
 11
89.8526
 21
7550.89
  0
LINE
  8
0
 10
89.8526
 20
7550.89
 11
90.0355
 21
7551.02
  0
LINE
  8
0
 10
90.0355
 20
7551.02
 11
90.2336
 21
7551.13
  0
LINE
  8
0
 10
90.2336
 20
7551.13
 11
90.4438
 21
7551.21
  0
LINE
  8
0
 10
90.4438
 20
7551.21
 11
90.6627
 21
7551.27
  0
LINE
  8
0
 10
90.6627
 20
7551.27
 11
90.887
 21
7551.3
  0
LINE
  8
0
 10
90.887
 20
7551.3
 11
91.113
 21
7551.3
  0
LINE
  8
0
 10
91.113
 20
7551.3
 11
91.3373
 21
7551.27
  0
LINE
  8
0
 10
91.3373
 20
7551.27
 11
91.5562
 21
7551.21
  0
LINE
  8
0
 10
91.5562
 20
7551.21
 11
91.7664
 21
7551.13
  0
LINE
  8
0
 10
91.7664
 20
7551.13
 11
91.9645
 21
7551.02
  0
LINE
  8
0
 10
91.9645
 20
7551.02
 11
92.1474
 21
7550.89
  0
LINE
  8
0
 10
92.1474
 20
7550.89
 11
92.3121
 21
7550.73
  0
LINE
  8
0
 10
92.3121
 20
7550.73
 11
92.4562
 21
7550.56
  0
LINE
  8
0
 10
92.4562
 20
7550.56
 11
92.5773
 21
7550.37
  0
LINE
  8
0
 10
92.5773
 20
7550.37
 11
92.6736
 21
7550.16
  0
LINE
  8
0
 10
92.6736
 20
7550.16
 11
92.7434
 21
7549.95
  0
LINE
  8
0
 10
92.7434
 20
7549.95
 11
92.7858
 21
7549.73
  0
LINE
  8
0
 10
92.7858
 20
7549.73
 11
92.8
 21
7549.5
  0
LINE
  8
0
 10
92.8
 20
7549.5
 11
92.7858
 21
7549.27
  0
LINE
  8
0
 10
92.7858
 20
7549.27
 11
92.7434
 21
7549.05
  0
LINE
  8
0
 10
92.7434
 20
7549.05
 11
92.6736
 21
7548.84
  0
LINE
  8
0
 10
92.6736
 20
7548.84
 11
92.5773
 21
7548.63
  0
LINE
  8
0
 10
92.5773
 20
7548.63
 11
92.4562
 21
7548.44
  0
LINE
  8
0
 10
92.4562
 20
7548.44
 11
92.3121
 21
7548.27
  0
LINE
  8
0
 10
92.3121
 20
7548.27
 11
92.1474
 21
7548.11
  0
LINE
  8
0
 10
92.1474
 20
7548.11
 11
91.9645
 21
7547.98
  0
LINE
  8
0
 10
91.9645
 20
7547.98
 11
91.7664
 21
7547.87
  0
LINE
  8
0
 10
91.7664
 20
7547.87
 11
91.5562
 21
7547.79
  0
LINE
  8
0
 10
91.5562
 20
7547.79
 11
91.3373
 21
7547.73
  0
LINE
  8
0
 10
91.3373
 20
7547.73
 11
91.113
 21
7547.7
  0
LINE
  8
0
 10
91.113
 20
7547.7
 11
90.887
 21
7547.7
  0
LINE
  8
0
 10
-91.113
 20
7547.7
 11
-91.3373
 21
7547.73
  0
LINE
  8
0
 10
-91.3373
 20
7547.73
 11
-91.5562
 21
7547.79
  0
LINE
  8
0
 10
-91.5562
 20
7547.79
 11
-91.7664
 21
7547.87
  0
LINE
  8
0
 10
-91.7664
 20
7547.87
 11
-91.9645
 21
7547.98
  0
LINE
  8
0
 10
-91.9645
 20
7547.98
 11
-92.1474
 21
7548.11
  0
LINE
  8
0
 10
-92.1474
 20
7548.11
 11
-92.3121
 21
7548.27
  0
LINE
  8
0
 10
-92.3121
 20
7548.27
 11
-92.4562
 21
7548.44
  0
LINE
  8
0
 10
-92.4562
 20
7548.44
 11
-92.5773
 21
7548.63
  0
LINE
  8
0
 10
-92.5773
 20
7548.63
 11
-92.6736
 21
7548.84
  0
LINE
  8
0
 10
-92.6736
 20
7548.84
 11
-92.7434
 21
7549.05
  0
LINE
  8
0
 10
-92.7434
 20
7549.05
 11
-92.7858
 21
7549.27
  0
LINE
  8
0
 10
-92.7858
 20
7549.27
 11
-92.8
 21
7549.5
  0
LINE
  8
0
 10
-92.8
 20
7549.5
 11
-92.7858
 21
7549.73
  0
LINE
  8
0
 10
-92.7858
 20
7549.73
 11
-92.7434
 21
7549.95
  0
LINE
  8
0
 10
-92.7434
 20
7549.95
 11
-92.6736
 21
7550.16
  0
LINE
  8
0
 10
-92.6736
 20
7550.16
 11
-92.5773
 21
7550.37
  0
LINE
  8
0
 10
-92.5773
 20
7550.37
 11
-92.4562
 21
7550.56
  0
LINE
  8
0
 10
-92.4562
 20
7550.56
 11
-92.3121
 21
7550.73
  0
LINE
  8
0
 10
-92.3121
 20
7550.73
 11
-92.1474
 21
7550.89
  0
LINE
  8
0
 10
-92.1474
 20
7550.89
 11
-91.9645
 21
7551.02
  0
LINE
  8
0
 10
-91.9645
 20
7551.02
 11
-91.7664
 21
7551.13
  0
LINE
  8
0
 10
-91.7664
 20
7551.13
 11
-91.5562
 21
7551.21
  0
LINE
  8
0
 10
-91.5562
 20
7551.21
 11
-91.3373
 21
7551.27
  0
LINE
  8
0
 10
-91.3373
 20
7551.27
 11
-91.113
 21
7551.3
  0
LINE
  8
0
 10
-91.113
 20
7551.3
 11
-90.887
 21
7551.3
  0
LINE
  8
0
 10
-90.887
 20
7551.3
 11
-90.6627
 21
7551.27
  0
LINE
  8
0
 10
-90.6627
 20
7551.27
 11
-90.4438
 21
7551.21
  0
LINE
  8
0
 10
-90.4438
 20
7551.21
 11
-90.2336
 21
7551.13
  0
LINE
  8
0
 10
-90.2336
 20
7551.13
 11
-90.0355
 21
7551.02
  0
LINE
  8
0
 10
-90.0355
 20
7551.02
 11
-89.8526
 21
7550.89
  0
LINE
  8
0
 10
-89.8526
 20
7550.89
 11
-89.6879
 21
7550.73
  0
LINE
  8
0
 10
-89.6879
 20
7550.73
 11
-89.5438
 21
7550.56
  0
LINE
  8
0
 10
-89.5438
 20
7550.56
 11
-89.4226
 21
7550.37
  0
LINE
  8
0
 10
-89.4226
 20
7550.37
 11
-89.3264
 21
7550.16
  0
LINE
  8
0
 10
-89.3264
 20
7550.16
 11
-89.2565
 21
7549.95
  0
LINE
  8
0
 10
-89.2565
 20
7549.95
 11
-89.2142
 21
7549.73
  0
LINE
  8
0
 10
-89.2142
 20
7549.73
 11
-89.2
 21
7549.5
  0
LINE
  8
0
 10
-89.2
 20
7549.5
 11
-89.2142
 21
7549.27
  0
LINE
  8
0
 10
-89.2142
 20
7549.27
 11
-89.2565
 21
7549.05
  0
LINE
  8
0
 10
-89.2565
 20
7549.05
 11
-89.3264
 21
7548.84
  0
LINE
  8
0
 10
-89.3264
 20
7548.84
 11
-89.4226
 21
7548.63
  0
LINE
  8
0
 10
-89.4226
 20
7548.63
 11
-89.5438
 21
7548.44
  0
LINE
  8
0
 10
-89.5438
 20
7548.44
 11
-89.6879
 21
7548.27
  0
LINE
  8
0
 10
-89.6879
 20
7548.27
 11
-89.8526
 21
7548.11
  0
LINE
  8
0
 10
-89.8526
 20
7548.11
 11
-90.0355
 21
7547.98
  0
LINE
  8
0
 10
-90.0355
 20
7547.98
 11
-90.2336
 21
7547.87
  0
LINE
  8
0
 10
-90.2336
 20
7547.87
 11
-90.4438
 21
7547.79
  0
LINE
  8
0
 10
-90.4438
 20
7547.79
 11
-90.6627
 21
7547.73
  0
LINE
  8
0
 10
-90.6627
 20
7547.73
 11
-90.887
 21
7547.7
  0
LINE
  8
0
 10
-90.887
 20
7547.7
 11
-91.113
 21
7547.7
  0
ENDSEC
  0
SECTION
  2
OBJECTS
  0
DICTIONARY
  0
ENDSEC
  0
EOF
