<?xml version="1.0" standalone="no"?>
<!DOCTYPE svg PUBLIC "-//W3C//DTD SVG 1.1//EN" "http://www.w3.org/Graphics/SVG/1.1/DTD/svg11.dtd">
<svg width="190mm" height="7791mm" viewBox="-95 -15336 190 7791" xmlns="http://www.w3.org/2000/svg" version="1.1">
<title>OpenSCAD Model</title>
<path d="
M 95,-15336 L 89.5,-15336 L 89.5,-15221.5 L 89.4606,-15220.9 L 89.3429,-15220.3 L 89.1489,-15219.7
 L 88.8815,-15219.1 L 88.5451,-15218.6 L 88.1448,-15218.1 L 87.6871,-15217.6 L 87.1791,-15217.3 L 86.6289,-15217
 L 86.0451,-15216.7 L 85.4369,-15216.6 L 84.8139,-15216.5 L -84.8139,-15216.5 L -85.4369,-15216.6 L -86.0451,-15216.7
 L -86.6289,-15217 L -87.1791,-15217.3 L -87.6871,-15217.6 L -88.1448,-15218.1 L -88.5451,-15218.6 L -88.8815,-15219.1
 L -89.1489,-15219.7 L -89.3429,-15220.3 L -89.4606,-15220.9 L -89.5,-15221.5 L -89.5,-15336 L -95,-15336
 L -95,-15213.5 L 95,-15213.5 z
M -91.113,-15215.7 L -91.3373,-15215.7 L -91.5562,-15215.8 L -91.7664,-15215.9 L -91.9645,-15216 L -92.1474,-15216.1
 L -92.3121,-15216.3 L -92.4562,-15216.4 L -92.5773,-15216.6 L -92.6736,-15216.8 L -92.7434,-15217.1 L -92.7858,-15217.3
 L -92.8,-15217.5 L -92.7858,-15217.7 L -92.7434,-15217.9 L -92.6736,-15218.2 L -92.5773,-15218.4 L -92.4562,-15218.6
 L -92.3121,-15218.7 L -92.1474,-15218.9 L -91.9645,-15219 L -91.7664,-15219.1 L -91.5562,-15219.2 L -91.3373,-15219.3
 L -91.113,-15219.3 L -90.887,-15219.3 L -90.6627,-15219.3 L -90.4438,-15219.2 L -90.2336,-15219.1 L -90.0355,-15219
 L -89.8526,-15218.9 L -89.6879,-15218.7 L -89.5438,-15218.6 L -89.4226,-15218.4 L -89.3264,-15218.2 L -89.2565,-15217.9
 L -89.2142,-15217.7 L -89.2,-15217.5 L -89.2142,-15217.3 L -89.2565,-15217.1 L -89.3264,-15216.8 L -89.4226,-15216.6
 L -89.5438,-15216.4 L -89.6879,-15216.3 L -89.8526,-15216.1 L -90.0355,-15216 L -90.2336,-15215.9 L -90.4438,-15215.8
 L -90.6627,-15215.7 L -90.887,-15215.7 z
M 90.887,-15215.7 L 90.6627,-15215.7 L 90.4438,-15215.8 L 90.2336,-15215.9 L 90.0355,-15216 L 89.8526,-15216.1
 L 89.6879,-15216.3 L 89.5438,-15216.4 L 89.4226,-15216.6 L 89.3264,-15216.8 L 89.2565,-15217.1 L 89.2142,-15217.3
 L 89.2,-15217.5 L 89.2142,-15217.7 L 89.2565,-15217.9 L 89.3264,-15218.2 L 89.4226,-15218.4 L 89.5438,-15218.6
 L 89.6879,-15218.7 L 89.8526,-15218.9 L 90.0355,-15219 L 90.2336,-15219.1 L 90.4438,-15219.2 L 90.6627,-15219.3
 L 90.887,-15219.3 L 91.113,-15219.3 L 91.3373,-15219.3 L 91.5562,-15219.2 L 91.7664,-15219.1 L 91.9645,-15219
 L 92.1474,-15218.9 L 92.3121,-15218.7 L 92.4562,-15218.6 L 92.5773,-15218.4 L 92.6736,-15218.2 L 92.7434,-15217.9
 L 92.7858,-15217.7 L 92.8,-15217.5 L 92.7858,-15217.3 L 92.7434,-15217.1 L 92.6736,-15216.8 L 92.5773,-15216.6
 L 92.4562,-15216.4 L 92.3121,-15216.3 L 92.1474,-15216.1 L 91.9645,-15216 L 91.7664,-15215.9 L 91.5562,-15215.8
 L 91.3373,-15215.7 L 91.113,-15215.7 z
M 95,-11502 L 89.5,-11502 L 89.5,-11387.5 L 89.4606,-11386.9 L 89.3429,-11386.3 L 89.1489,-11385.7
 L 88.8815,-11385.1 L 88.5451,-11384.6 L 88.1448,-11384.1 L 87.6871,-11383.6 L 87.1791,-11383.3 L 86.6289,-11383
 L 86.0451,-11382.7 L 85.4369,-11382.6 L 84.8139,-11382.5 L -84.8139,-11382.5 L -85.4369,-11382.6 L -86.0451,-11382.7
 L -86.6289,-11383 L -87.1791,-11383.3 L -87.6871,-11383.6 L -88.1448,-11384.1 L -88.5451,-11384.6 L -88.8815,-11385.1
 L -89.1489,-11385.7 L -89.3429,-11386.3 L -89.4606,-11386.9 L -89.5,-11387.5 L -89.5,-11502 L -95,-11502
 L -95,-11379.5 L 95,-11379.5 z
M -91.113,-11381.7 L -91.3373,-11381.7 L -91.5562,-11381.8 L -91.7664,-11381.9 L -91.9645,-11382 L -92.1474,-11382.1
 L -92.3121,-11382.3 L -92.4562,-11382.4 L -92.5773,-11382.6 L -92.6736,-11382.8 L -92.7434,-11383.1 L -92.7858,-11383.3
 L -92.8,-11383.5 L -92.7858,-11383.7 L -92.7434,-11383.9 L -92.6736,-11384.2 L -92.5773,-11384.4 L -92.4562,-11384.6
 L -92.3121,-11384.7 L -92.1474,-11384.9 L -91.9645,-11385 L -91.7664,-11385.1 L -91.5562,-11385.2 L -91.3373,-11385.3
 L -91.113,-11385.3 L -90.887,-11385.3 L -90.6627,-11385.3 L -90.4438,-11385.2 L -90.2336,-11385.1 L -90.0355,-11385
 L -89.8526,-11384.9 L -89.6879,-11384.7 L -89.5438,-11384.6 L -89.4226,-11384.4 L -89.3264,-11384.2 L -89.2565,-11383.9
 L -89.2142,-11383.7 L -89.2,-11383.5 L -89.2142,-11383.3 L -89.2565,-11383.1 L -89.3264,-11382.8 L -89.4226,-11382.6
 L -89.5438,-11382.4 L -89.6879,-11382.3 L -89.8526,-11382.1 L -90.0355,-11382 L -90.2336,-11381.9 L -90.4438,-11381.8
 L -90.6627,-11381.7 L -90.887,-11381.7 z
M 90.887,-11381.7 L 90.6627,-11381.7 L 90.4438,-11381.8 L 90.2336,-11381.9 L 90.0355,-11382 L 89.8526,-11382.1
 L 89.6879,-11382.3 L 89.5438,-11382.4 L 89.4226,-11382.6 L 89.3264,-11382.8 L 89.2565,-11383.1 L 89.2142,-11383.3
 L 89.2,-11383.5 L 89.2142,-11383.7 L 89.2565,-11383.9 L 89.3264,-11384.2 L 89.4226,-11384.4 L 89.5438,-11384.6
 L 89.6879,-11384.7 L 89.8526,-11384.9 L 90.0355,-11385 L 90.2336,-11385.1 L 90.4438,-11385.2 L 90.6627,-11385.3
 L 90.887,-11385.3 L 91.113,-11385.3 L 91.3373,-11385.3 L 91.5562,-11385.2 L 91.7664,-11385.1 L 91.9645,-11385
 L 92.1474,-11384.9 L 92.3121,-11384.7 L 92.4562,-11384.6 L 92.5773,-11384.4 L 92.6736,-11384.2 L 92.7434,-11383.9
 L 92.7858,-11383.7 L 92.8,-11383.5 L 92.7858,-11383.3 L 92.7434,-11383.1 L 92.6736,-11382.8 L 92.5773,-11382.6
 L 92.4562,-11382.4 L 92.3121,-11382.3 L 92.1474,-11382.1 L 91.9645,-11382 L 91.7664,-11381.9 L 91.5562,-11381.8
 L 91.3373,-11381.7 L 91.113,-11381.7 z
M 95,-7668 L 89.5,-7668 L 89.5,-7553.5 L 89.4606,-7552.87 L 89.3429,-7552.26 L 89.1489,-7551.66
 L 88.8815,-7551.09 L 88.5451,-7550.56 L 88.1448,-7550.08 L 87.6871,-7549.65 L 87.1791,-7549.28 L 86.6289,-7548.98
 L 86.0451,-7548.74 L 85.4369,-7548.59 L 84.8139,-7548.51 L -84.8139,-7548.51 L -85.4369,-7548.59 L -86.0451,-7548.74
 L -86.6289,-7548.98 L -87.1791,-7549.28 L -87.6871,-7549.65 L -88.1448,-7550.08 L -88.5451,-7550.56 L -88.8815,-7551.09
 L -89.1489,-7551.66 L -89.3429,-7552.26 L -89.4606,-7552.87 L -89.5,-7553.5 L -89.5,-7668 L -95,-7668
 L -95,-7545.5 L 95,-7545.5 z
M 90.887,-7547.7 L 90.6627,-7547.73 L 90.4438,-7547.79 L 90.2336,-7547.87 L 90.0355,-7547.98 L 89.8526,-7548.11
 L 89.6879,-7548.27 L 89.5438,-7548.44 L 89.4226,-7548.63 L 89.3264,-7548.84 L 89.2565,-7549.05 L 89.2142,-7549.27
 L 89.2,-7549.5 L 89.2142,-7549.73 L 89.2565,-7549.95 L 89.3264,-7550.16 L 89.4226,-7550.37 L 89.5438,-7550.56
 L 89.6879,-7550.73 L 89.8526,-7550.89 L 90.0355,-7551.02 L 90.2336,-7551.13 L 90.4438,-7551.21 L 90.6627,-7551.27
 L 90.887,-7551.3 L 91.113,-7551.3 L 91.3373,-7551.27 L 91.5562,-7551.21 L 91.7664,-7551.13 L 91.9645,-7551.02
 L 92.1474,-7550.89 L 92.3121,-7550.73 L 92.4562,-7550.56 L 92.5773,-7550.37 L 92.6736,-7550.16 L 92.7434,-7549.95
 L 92.7858,-7549.73 L 92.8,-7549.5 L 92.7858,-7549.27 L 92.7434,-7549.05 L 92.6736,-7548.84 L 92.5773,-7548.63
 L 92.4562,-7548.44 L 92.3121,-7548.27 L 92.1474,-7548.11 L 91.9645,-7547.98 L 91.7664,-7547.87 L 91.5562,-7547.79
 L 91.3373,-7547.73 L 91.113,-7547.7 z
M -91.113,-7547.7 L -91.3373,-7547.73 L -91.5562,-7547.79 L -91.7664,-7547.87 L -91.9645,-7547.98 L -92.1474,-7548.11
 L -92.3121,-7548.27 L -92.4562,-7548.44 L -92.5773,-7548.63 L -92.6736,-7548.84 L -92.7434,-7549.05 L -92.7858,-7549.27
 L -92.8,-7549.5 L -92.7858,-7549.73 L -92.7434,-7549.95 L -92.6736,-7550.16 L -92.5773,-7550.37 L -92.4562,-7550.56
 L -92.3121,-7550.73 L -92.1474,-7550.89 L -91.9645,-7551.02 L -91.7664,-7551.13 L -91.5562,-7551.21 L -91.3373,-7551.27
 L -91.113,-7551.3 L -90.887,-7551.3 L -90.6627,-7551.27 L -90.4438,-7551.21 L -90.2336,-7551.13 L -90.0355,-7551.02
 L -89.8526,-7550.89 L -89.6879,-7550.73 L -89.5438,-7550.56 L -89.4226,-7550.37 L -89.3264,-7550.16 L -89.2565,-7549.95
 L -89.2142,-7549.73 L -89.2,-7549.5 L -89.2142,-7549.27 L -89.2565,-7549.05 L -89.3264,-7548.84 L -89.4226,-7548.63
 L -89.5438,-7548.44 L -89.6879,-7548.27 L -89.8526,-7548.11 L -90.0355,-7547.98 L -90.2336,-7547.87 L -90.4438,-7547.79
 L -90.6627,-7547.73 L -90.887,-7547.7 z
" stroke="black" fill="lightgray" stroke-width="0.5"/>
</svg>
